<svg xmlns="http://www.w3.org/2000/svg" fill="none" viewBox="0 0 212 48" id="logo-compact">
  <path
    d="M77.257 12.158l-23.87.024v5.74h3.536v1.667h-1.769v5.74h1.769c.023 1.428.334 2.786.955 4.048a10.967 10.967 0 002.51 3.382 12.001 12.001 0 003.655 2.286c1.362.548 2.82.81 4.325.81h7.12v-5.74h-7.12a5.858 5.858 0 01-2.222-.428 5.604 5.604 0 01-1.792-1.239 5.52 5.52 0 01-1.219-1.786 5.31 5.31 0 01-.382-1.334h3.058c1.53 0 2.963-.262 4.35-.81a11.881 11.881 0 003.631-2.286 11.035 11.035 0 002.533-3.381 9.607 9.607 0 00.932-4.192v-2.5zm-9.223 7.002a5.77 5.77 0 01-2.223.429h-3.13v-1.667h7.169a5.986 5.986 0 01-1.816 1.238zM97.926 21.923v4.953H78.953v-4.953h18.973zM130.303 12.254l-12.473-.024v-1.763h-5.759v1.763l-12.473.024v12.932c0 1.5.311 2.881.956 4.191a10.671 10.671 0 002.533 3.382 11.598 11.598 0 003.632 2.286c1.649.667 2.819.81 5.352.81v1.81h5.759v-1.81c2.461 0 3.656-.12 5.352-.81a11.996 11.996 0 003.656-2.286c1.051-.953 1.888-2.096 2.533-3.382a9.612 9.612 0 00.932-4.191V12.254zm-19.259 17.861a5.644 5.644 0 01-2.198-.428 5.445 5.445 0 01-1.816-1.239 5.46 5.46 0 01-1.195-1.786 5.06 5.06 0 01-.478-2.215v-6.454h6.714v12.122h-1.027zm13.046-3.453a5.519 5.519 0 01-1.218 1.786c-.502.524-1.1.929-1.792 1.239a5.861 5.861 0 01-2.223.428h-1.027V17.993h6.714v6.454a5.4 5.4 0 01-.454 2.215zM146.551 12.158v3.43a17.287 17.287 0 00-8.793 3.81v-7.24h-5.759v23.697h5.759v-4.192c0-2.572 1.338-4.977 3.178-6.835a11.073 11.073 0 015.615-3v14.027h5.759V12.158h-5.759zM176.061 12.182l-10.633-.024c-1.529 0-2.963.262-4.349.834-1.362.548-2.604 1.31-3.632 2.262-1.051.977-1.912 2.096-2.533 3.406a9.508 9.508 0 00-.932 4.168v13.027h5.759V23.566c0-.786.143-1.5.454-2.191a5.323 5.323 0 011.195-1.81c.501-.5 1.123-.905 1.816-1.238a5.682 5.682 0 012.222-.43h3.106v17.958h5.759v-17.98h1.768v-5.693zM199.836 17.922v-5.74h-22.102v5.74h14.575v1.667h-14.575v5.597c0 1.571.334 2.905.931 4.191.646 1.286 1.482 2.43 2.533 3.382a12.008 12.008 0 003.656 2.286c1.362.548 2.82.81 4.325.81h8.889V17.922h1.768zm-10.657 12.193a5.86 5.86 0 01-2.222-.428 5.604 5.604 0 01-1.792-1.239 5.522 5.522 0 01-1.219-1.786 5.327 5.327 0 01-.382-1.334h8.745v4.787h-3.13zM207.602 24.376h-5.711V4.228h5.711v20.148zm0 11.479h-5.711v-5.692h5.711v5.692z"
    fill="#fff"
  ></path>
  <ellipse cx="24.07" cy="24" rx="21.07" ry="21" fill="#FF4D00"></ellipse>
  <path
    d="M21.485 3.156c-1.498 1.29-2.804 2.79-3.817 4.46a15.724 15.724 0 00-1.674 3.806c-.655 2.282-.67 5.127.157 7.529.823 2.39 2.455 4.29 5.078 4.847.204.044.445.07.701.075a4.963 4.963 0 01-.971-.668c-2.33-2.093-2.82-4.953-2.285-7.679.532-2.713 2.084-5.351 3.933-7.134a16.82 16.82 0 013.593-2.63 19.4 19.4 0 014.384-1.74c.594.193 1.176.411 1.746.653-1.977.367-3.894 1.02-5.638 1.977-1.22.67-2.354 1.49-3.364 2.464-1.712 1.65-3.152 4.106-3.641 6.599-.487 2.48-.027 4.938 1.966 6.728.155.14.35.283.57.415a4.942 4.942 0 01-.507-1.064c-.968-2.973.044-5.694 1.874-7.788 1.822-2.085 4.49-3.596 6.985-4.218a16.876 16.876 0 014.443-.488c1.61.033 3.21.281 4.764.708.415.464.81.945 1.184 1.444-1.925-.69-3.945-1.093-5.968-1.135a15.858 15.858 0 00-4.162.457c-2.31.576-4.79 1.985-6.464 3.9-1.666 1.905-2.5 4.264-1.672 6.807.064.198.161.42.285.642-.014-.417.02-.824.095-1.172.654-3.058 2.894-4.91 5.53-5.812 2.624-.897 5.692-.876 8.165-.172a16.85 16.85 0 014.076 1.782c1.419.853 2.716 1.9 3.874 3.086.122.604.218 1.216.286 1.837-1.34-1.597-2.919-2.988-4.689-4.053a15.824 15.824 0 00-3.816-1.668c-2.29-.652-5.144-.668-7.554.157-2.398.82-4.304 2.446-4.863 5.061-.044.204-.07.444-.076.699.197-.368.432-.704.671-.969 2.1-2.322 4.97-2.81 7.704-2.276 2.723.53 5.37 2.077 7.158 3.92a16.772 16.772 0 012.64 3.583A19.359 19.359 0 0144.01 30.8c-.203.589-.43 1.166-.682 1.73-.356-2.075-1.027-4.089-2.033-5.913a15.759 15.759 0 00-2.475-3.357c-1.656-1.707-4.12-3.142-6.62-3.63-2.49-.484-4.956-.026-6.752 1.96a3.76 3.76 0 00-.415.568c.355-.22.726-.394 1.066-.505 2.984-.964 5.713.044 7.814 1.868 2.092 1.816 3.608 4.475 4.233 6.962.366 1.46.52 2.945.489 4.424a19.345 19.345 0 01-.77 4.966c-.468.404-.954.787-1.456 1.15.733-1.975 1.163-4.054 1.206-6.136a15.702 15.702 0 00-.459-4.144c-.578-2.303-1.991-4.774-3.913-6.442-1.912-1.66-4.278-2.492-6.83-1.667-.198.064-.42.16-.644.284.419-.014.827.02 1.177.095 3.067.651 4.926 2.884 5.83 5.511.9 2.616.88 5.673.173 8.138a16.738 16.738 0 01-1.793 4.072 19.403 19.403 0 01-3.137 3.897c-.6.113-1.208.2-1.824.262 1.61-1.338 3.013-2.914 4.087-4.683a15.725 15.725 0 001.68-3.815c.655-2.283.67-5.127-.157-7.53-.823-2.39-2.455-4.29-5.078-4.847a3.79 3.79 0 00-.701-.075c.37.197.706.43.971.669 2.33 2.093 2.82 4.953 2.285 7.678-.533 2.714-2.084 5.352-3.933 7.134a16.82 16.82 0 01-3.587 2.628 19.465 19.465 0 01-4.594 1.794c-.581-.2-1.151-.426-1.708-.675 2.038-.36 4.015-1.024 5.81-2.01a15.793 15.793 0 003.358-2.46c1.712-1.651 3.152-4.107 3.641-6.6.487-2.48.026-4.938-1.966-6.728a3.765 3.765 0 00-.57-.414c.222.354.396.724.507 1.063.967 2.974-.044 5.695-1.874 7.788-1.822 2.085-4.49 3.596-6.985 4.219a16.87 16.87 0 01-4.425.487 19.442 19.442 0 01-4.754-.7 21.122 21.122 0 01-1.147-1.428c1.91.677 3.914 1.072 5.92 1.112 1.391.027 2.783-.117 4.145-.457 2.31-.576 4.79-1.985 6.464-3.9 1.665-1.906 2.5-4.264 1.672-6.807a3.75 3.75 0 00-.285-.643c.014.417-.02.824-.095 1.173-.654 3.057-2.894 4.91-5.53 5.811-2.624.897-5.692.877-8.165.172a16.854 16.854 0 01-4.088-1.789 19.349 19.349 0 01-3.678-2.893 20.892 20.892 0 01-.283-1.803c1.296 1.501 2.805 2.81 4.488 3.826a15.83 15.83 0 003.83 1.675c2.29.653 5.143.668 7.554-.156 2.398-.82 4.304-2.447 4.863-5.062.044-.203.07-.443.075-.698a4.95 4.95 0 01-.67.968c-2.1 2.322-4.97 2.81-7.704 2.277-2.723-.53-5.37-2.077-7.158-3.92a16.766 16.766 0 01-2.636-3.574 19.225 19.225 0 01-1.72-4.276 20.8 20.8 0 01.65-1.714c.373 1.928 1.022 3.796 1.963 5.498a15.753 15.753 0 002.469 3.348c1.656 1.706 4.12 3.142 6.62 3.629 2.49.485 4.956.026 6.752-1.96a3.76 3.76 0 00.415-.567 4.97 4.97 0 01-1.067.504c-2.983.965-5.713-.043-7.814-1.868-2.091-1.816-3.607-4.474-4.232-6.961a16.714 16.714 0 01-.49-4.425c.031-1.522.257-3.037.646-4.511.458-.411.934-.803 1.426-1.173-.638 1.845-1.011 3.774-1.051 5.705-.028 1.39.116 2.781.458 4.144.579 2.303 1.992 4.773 3.913 6.442 1.912 1.66 4.279 2.492 6.83 1.667.199-.064.42-.161.645-.284a4.983 4.983 0 01-1.177-.095c-3.068-.652-4.926-2.885-5.83-5.512-.9-2.615-.88-5.673-.173-8.138a16.732 16.732 0 011.788-4.064c.8-1.32 1.769-2.535 2.861-3.629.6-.127 1.21-.23 1.829-.305z"
    fill="#FF8B52"
  ></path>
  <ellipse cx="24.07" cy="24" rx="17.671" ry="17.613" fill="#F4E9E3"></ellipse>
  <g mask="url(#logo-compact_a)">
    <path
      d="M28.717 7.213c.046-.371-.445-.738-1.097-.818-.652-.081-1.218.154-1.264.526-.046.37.445.737 1.096.818.652.08 1.218-.155 1.265-.526zM23.827 6.967c-.056.37.424.75 1.074.848.65.098 1.222-.122 1.278-.492.056-.37-.424-.749-1.074-.847-.65-.099-1.221.121-1.278.491zM22.189 6.709c.571-.323 1.184-.321 1.37.004.185.325-.128.851-.7 1.174-.571.323-1.184.321-1.37-.004-.185-.326.128-.851.7-1.174zM18.312 6.984c.605-.255 1.214-.182 1.36.163.147.344-.225.83-.83 1.085s-1.214.182-1.36-.162c-.147-.345.225-.83.83-1.086zM16.67 9.57c-.612.238-1.218.149-1.355-.2-.137-.348.248-.824.86-1.062.612-.239 1.219-.15 1.355.199.137.348-.248.824-.86 1.063zM14.955 9.284c-.324-.19-.856.115-1.189.679-.333.565-.34 1.176-.016 1.365.323.19.855-.114 1.188-.679.333-.564.34-1.175.017-1.365zM11.807 11.596c-.3-.225-.864.015-1.26.537-.396.523-.474 1.13-.175 1.355.3.225.864-.015 1.26-.538.396-.522.474-1.128.175-1.354zM11.142 14.041c.133-.641.539-1.1.907-1.024.367.076.557.657.425 1.298-.133.641-.539 1.1-.906 1.024-.368-.076-.559-.657-.426-1.298zM9.149 15.694c.293.233.863.008 1.273-.503.41-.511.505-1.116.212-1.35-.293-.233-.863-.008-1.274.504-.41.511-.505 1.115-.211 1.349zM8.105 16.979c.005-.655.313-1.183.688-1.18.376.002.676.535.67 1.19-.004.655-.312 1.183-.688 1.18-.375-.003-.675-.535-.67-1.19zM12.148 19.191c-.046-.653.22-1.204.595-1.23.374-.026.715.482.761 1.135.046.654-.22 1.204-.595 1.23-.374.026-.715-.482-.76-1.135zM6.406 20.462c.081-.65.449-1.139.821-1.092.373.046.609.61.528 1.26-.081.65-.449 1.139-.821 1.093-.373-.047-.609-.61-.528-1.26zM8.15 20.48c-.357.117-.478.717-.272 1.338.207.621.663 1.03 1.02.912.356-.117.477-.717.27-1.338-.206-.622-.662-1.03-1.019-.912zM6.98 24.243c.372.056.753-.423.851-1.07.099-.648-.122-1.218-.493-1.274-.371-.056-.752.423-.85 1.07-.1.647.121 1.218.493 1.274zM9.177 20.381c-.246.283-.042.86.454 1.288.497.429 1.099.547 1.345.264.245-.283.042-.86-.455-1.288-.496-.428-1.098-.546-1.344-.264zM9.885 24.493c.375.018.704-.498.735-1.152.031-.654-.247-1.199-.622-1.216-.375-.018-.704.498-.735 1.152-.031.654.247 1.198.622 1.216zM9.182 24c0 .655-.304 1.186-.68 1.186-.375 0-.679-.53-.679-1.186 0-.654.304-1.185.68-1.185.375 0 .68.53.68 1.185zM11.005 19.533c-.33.177-.346.788-.035 1.365.31.577.83.9 1.161.724.331-.178.347-.789.036-1.366-.311-.576-.831-.9-1.162-.723zM7.824 18.05c-.345.146-.416.753-.159 1.355.257.603.746.972 1.091.826.346-.147.417-.754.16-1.356-.258-.603-.746-.972-1.092-.826zM9.283 19.216c-.2-.623-.074-1.221.284-1.336.357-.114.81.299 1.01.922.2.624.073 1.222-.284 1.336-.357.114-.81-.298-1.01-.922zM11.354 24.251c.373.041.734-.453.807-1.103.072-.651-.171-1.212-.544-1.253-.373-.042-.735.452-.807 1.103-.073.65.17 1.212.544 1.253zM11.865 18.044c.271.597.214 1.205-.128 1.36-.342.154-.839-.204-1.11-.8-.271-.597-.214-1.205.128-1.36.342-.154.839.204 1.11.8zM12.735 14.786c-.215-.618-.102-1.22.253-1.342.355-.122.817.28 1.032.898.215.62.102 1.22-.253 1.342-.355.123-.817-.28-1.032-.898zM17.29 13.125c-.337-.164-.844.18-1.132.769-.288.588-.248 1.198.09 1.362.337.164.844-.18 1.132-.768.288-.589.248-1.199-.09-1.363zM12.753 16.727c-.355.55-.899.833-1.214.631-.316-.202-.285-.813.07-1.364.355-.55.9-.833 1.215-.631.316.202.284.813-.07 1.364zM9.994 17.269c.325.187.854-.121 1.183-.688.328-.567.331-1.178.006-1.365-.325-.187-.855.12-1.183.688-.329.567-.331 1.178-.006 1.365zM14.281 14.785c.02-.655.34-1.176.716-1.165.375.012.663.552.643 1.206-.02.654-.34 1.176-.716 1.164-.375-.011-.663-.55-.643-1.205zM12.168 11.846c.08-.65.446-1.14.818-1.095.373.045.61.608.531 1.258-.079.65-.445 1.14-.818 1.095-.372-.045-.61-.608-.53-1.258zM14.58 11.473c-.367-.08-.777.375-.916 1.015-.14.64.046 1.223.412 1.302.367.079.777-.375.916-1.015.14-.64-.045-1.223-.412-1.303zM14.184 17.327c-.39.527-.95.775-1.252.553-.303-.222-.232-.829.157-1.356.39-.528.95-.775 1.253-.554.302.222.231.83-.158 1.357zM15.695 13.873c.374.037.729-.461.793-1.113.065-.652-.186-1.21-.56-1.246-.373-.037-.728.462-.793 1.113-.064.652.187 1.21.56 1.246zM19.169 8.497c-.28-.248-.862-.053-1.298.436-.437.489-.564 1.087-.283 1.336.28.248.861.053 1.298-.436.437-.489.563-1.087.283-1.336zM19.768 9.336c-.368-.071-.768.393-.892 1.036s.075 1.221.443 1.292c.369.07.768-.393.892-1.036s-.074-1.222-.443-1.292zM22.288 11.305c.545-.366 1.156-.412 1.366-.102.21.31-.061.859-.606 1.225-.544.366-1.156.412-1.366.101-.21-.31.062-.858.606-1.224zM16.55 12.003c.172.332.785.358 1.368.058.584-.3.918-.813.746-1.145-.172-.333-.785-.359-1.369-.059s-.917.813-.745 1.146zM16.626 11.15c-.569.327-1.182.33-1.37.006-.187-.324.122-.852.69-1.18.57-.327 1.183-.33 1.37-.006.188.324-.12.852-.69 1.18zM21.42 10.49c-.32-.197-.859.094-1.204.651-.346.557-.367 1.168-.048 1.365.32.196.858-.095 1.204-.652.345-.557.367-1.168.048-1.365zM21.118 7.002c-.3-.225-.863.017-1.258.54-.394.524-.471 1.13-.171 1.355.3.225.863-.017 1.258-.54.395-.524.471-1.13.171-1.355zM20.834 8.844c.441-.485 1.024-.674 1.302-.422.278.25.146.848-.296 1.333-.441.484-1.024.674-1.302.422-.278-.251-.146-.848.296-1.333zM17.494 13.15c.151.342.76.407 1.363.144.601-.263.967-.753.816-1.096-.15-.343-.76-.408-1.362-.145-.602.263-.967.753-.817 1.096zM23.143 10.487c-.383.533-.94.787-1.245.57-.305-.219-.243-.827.14-1.359s.94-.787 1.245-.569c.305.218.243.826-.14 1.358zM26.26 7.862c.624-.206 1.225-.085 1.343.27.118.355-.292.81-.915 1.016-.624.206-1.225.085-1.343-.27-.118-.355.292-.81.915-1.016zM26.41 9.61c.43-.496 1.008-.698 1.292-.454.283.245.165.845-.265 1.34-.43.495-1.009.698-1.293.453-.283-.245-.165-.845.265-1.34zM30.13 12.71c-.026-.373-.579-.638-1.234-.593-.656.046-1.166.386-1.14.76.027.372.58.638 1.235.592.655-.046 1.165-.385 1.139-.758zM24.732 10.595c-.656-.031-1.174-.36-1.156-.733.018-.373.564-.651 1.22-.62.656.03 1.174.359 1.156.732-.018.374-.564.652-1.22.62zM22.881 8.484c0 .374.532.678 1.19.678.656 0 1.189-.304 1.189-.678 0-.374-.533-.677-1.19-.677-.657 0-1.189.303-1.189.677zM27.183 10.943c.579-.31 1.192-.294 1.37.036.177.33-.148.848-.726 1.157-.579.31-1.192.294-1.37-.035-.177-.33.148-.848.726-1.158zM32.3 8.774c.003-.374-.528-.681-1.185-.686-.656-.006-1.191.294-1.194.668-.003.374.527.681 1.184.686.657.005 1.192-.294 1.195-.668zM28.68 7.65c.605-.257 1.214-.186 1.361.158.147.344-.223.831-.828 1.088-.604.256-1.213.185-1.36-.159-.147-.344.223-.831.828-1.088zM30.21 9.545c-.114-.356-.714-.483-1.34-.283-.625.2-1.04.65-.925 1.007.115.356.715.483 1.34.283.626-.2 1.04-.65.926-1.007zM24.926 12.13c-.653-.072-1.148-.432-1.107-.804.041-.372.604-.615 1.257-.542.653.072 1.149.432 1.107.804-.041.372-.604.615-1.257.542zM28.682 11.708c.155.34.766.398 1.364.127.599-.27.958-.765.803-1.106-.155-.34-.765-.398-1.364-.127-.598.27-.958.765-.803 1.106zM32.91 10.397c-.514-.409-.74-.977-.505-1.269.234-.292.84-.198 1.353.211.513.409.74.977.505 1.27-.235.292-.84.197-1.354-.212zM35.09 12.018c.076-.366-.384-.77-1.027-.903-.644-.132-1.227.057-1.302.424-.076.366.384.77 1.027.903.643.132 1.226-.057 1.302-.424zM35.977 10.522c.524.395.765.957.539 1.255-.227.299-.835.22-1.359-.174-.524-.395-.765-.957-.539-1.255.226-.299.835-.22 1.359.174zM34.662 12.955c-.123-.354-.726-.466-1.347-.252-.62.214-1.024.675-.9 1.028.122.354.725.466 1.346.252.62-.214 1.024-.675.9-1.028zM34.21 16.114c.59.287.936.792.772 1.129-.165.336-.777.376-1.367.089-.59-.287-.936-.792-.772-1.129.165-.336.777-.376 1.367-.089zM30.735 11.51c-.203.315.08.857.633 1.21.553.354 1.166.386 1.369.071.202-.315-.081-.857-.634-1.21-.553-.354-1.165-.386-1.368-.071zM31.515 11.15c-.57-.328-.878-.856-.69-1.18.187-.324.8-.321 1.37.006.568.328.877.856.69 1.18-.188.324-.802.321-1.37-.006zM34.485 14.957c.011-.374-.512-.693-1.168-.713-.657-.02-1.199.267-1.21.64-.011.374.512.694 1.168.714.657.02 1.198-.267 1.21-.641zM38.154 13.73c.567.332.872.862.682 1.185-.19.323-.804.315-1.37-.017-.566-.331-.872-.862-.681-1.184.19-.323.803-.315 1.37.016zM37.364 12.953c.046-.371-.446-.736-1.098-.816-.652-.079-1.218.159-1.263.53-.045.371.447.736 1.099.815.652.08 1.217-.158 1.262-.529zM35.621 13.629c.642.138 1.098.547 1.019.912-.08.366-.664.55-1.306.412-.642-.139-1.099-.548-1.019-.913.08-.366.664-.55 1.306-.411zM30.211 12.899c-.222.301.026.86.555 1.248.53.388 1.139.458 1.361.157.223-.302-.026-.86-.555-1.248-.53-.388-1.138-.459-1.36-.157zM35.348 16.443c-.653-.064-1.154-.418-1.117-.79.037-.372.597-.622 1.25-.558.654.064 1.154.418 1.118.79-.037.373-.597.623-1.25.558zM38.75 15.274c-.35.136-.44.74-.2 1.35.239.61.716.994 1.065.858.35-.136.44-.741.2-1.35-.239-.61-.716-.994-1.066-.858zM39.188 17.821c.49.435.686 1.015.437 1.294-.25.28-.85.154-1.34-.282-.491-.435-.687-1.014-.437-1.294.25-.28.85-.153 1.34.282zM40.98 19.617c.346-.146.419-.753.163-1.356-.256-.603-.743-.973-1.09-.828-.345.146-.418.753-.162 1.356.256.603.744.974 1.09.828zM37.744 18.824c.645.123 1.11.521 1.04.889-.07.367-.651.565-1.296.441-.645-.124-1.11-.522-1.04-.889.07-.367.651-.565 1.296-.441zM36.91 23.586c.311-.21.266-.82-.102-1.362-.367-.543-.917-.813-1.228-.604-.312.21-.266.819.101 1.362.368.543.918.813 1.229.604zM36.05 17.869c-.302-.582-.276-1.193.058-1.364.334-.172.848.16 1.15.742.3.582.274 1.193-.06 1.365-.333.171-.848-.161-1.149-.743zM36.958 15.216c-.325.187-.322.798.006 1.365s.858.875 1.183.688c.325-.187.323-.798-.006-1.365-.328-.567-.858-.875-1.183-.688zM36.972 20.159c.56.344.852.881.654 1.2-.197.318-.81.296-1.369-.048-.558-.345-.851-.882-.654-1.2.198-.318.81-.297 1.37.048zM41.415 23.49c.327-.184.329-.796.005-1.365-.324-.57-.852-.882-1.178-.697-.327.185-.329.796-.005 1.365.324.57.852.882 1.178.697zM40.583 19.804c.525.394.768.955.542 1.254-.225.3-.834.223-1.359-.17-.525-.394-.768-.956-.542-1.255.225-.299.834-.222 1.359.171zM39.701 22.073c.252-.277.063-.859-.424-1.299-.486-.44-1.085-.572-1.337-.295-.253.277-.063.859.424 1.299.486.44 1.085.572 1.337.295zM34.812 18.804c-.263-.6-.198-1.208.146-1.358.344-.15.836.214 1.1.814.263.6.198 1.208-.146 1.358-.344.15-.836-.214-1.1-.814zM37.057 21.835c-.218.304.037.86.571 1.241.534.381 1.145.444 1.363.14.219-.304-.037-.86-.57-1.241-.535-.382-1.145-.444-1.364-.14zM40.31 24.828c.098-.647.48-1.126.85-1.07.371.056.592.627.494 1.274-.1.647-.48 1.126-.851 1.07-.371-.056-.592-.627-.493-1.274zM39.992 27.521c.356-.117.477-.717.27-1.338-.206-.622-.662-1.03-1.019-.912-.356.117-.477.716-.27 1.338.206.621.662 1.03 1.019.912zM41.735 27.538c-.081.65-.449 1.14-.821 1.093-.373-.046-.61-.61-.528-1.26.08-.65.448-1.139.821-1.093.373.047.609.61.528 1.26zM38.964 27.62c.245-.283.042-.86-.455-1.289-.496-.428-1.098-.546-1.344-.263-.245.282-.042.86.455 1.288.496.428 1.098.546 1.344.264zM35.993 28.81c.046.653-.22 1.204-.595 1.23-.375.026-.715-.482-.761-1.136-.046-.653.22-1.203.595-1.23.374-.026.715.483.76 1.136zM38.256 23.508c-.375-.018-.705.498-.736 1.152-.03.654.248 1.198.623 1.216.375.018.704-.498.735-1.152.031-.654-.248-1.199-.622-1.216zM38.959 24c0-.654.304-1.185.68-1.185.375 0 .679.53.679 1.185s-.304 1.186-.68 1.186c-.375 0-.68-.53-.68-1.186zM37.136 28.468c.33-.177.346-.788.035-1.365-.31-.577-.83-.9-1.161-.724-.331.177-.347.789-.036 1.365.31.577.83.901 1.162.724zM40.036 31.022c-.005.655-.313 1.183-.689 1.18-.375-.002-.675-.535-.67-1.19.005-.655.313-1.183.689-1.18.375.002.675.535.67 1.19zM40.317 29.951c.345-.146.416-.753.159-1.356-.258-.602-.746-.971-1.092-.825-.345.147-.416.754-.159 1.356.258.603.746.972 1.092.825zM38.858 28.785c.2.623.074 1.221-.284 1.335-.357.115-.81-.298-1.01-.922-.2-.623-.074-1.221.284-1.335.357-.114.81.298 1.01.922zM36.787 23.75c-.373-.041-.734.453-.807 1.103-.072.65.171 1.212.544 1.253.373.042.734-.452.807-1.103.073-.65-.17-1.212-.544-1.253zM36.276 29.956c-.271-.596-.214-1.204.128-1.359.342-.154.839.204 1.11.8.271.597.214 1.205-.128 1.36-.342.154-.84-.204-1.11-.8zM38.992 32.307c-.293-.233-.863-.008-1.273.503-.41.511-.505 1.115-.212 1.349.293.234.863.008 1.273-.503.41-.511.505-1.115.212-1.349zM36.998 33.96c-.132.641-.538 1.1-.906 1.024-.367-.076-.558-.657-.425-1.298.133-.641.539-1.1.906-1.024.368.075.558.657.425 1.298zM36.334 36.405c.3.225.863-.015 1.26-.538.395-.522.474-1.128.174-1.354-.3-.225-.863.015-1.259.537-.396.523-.474 1.13-.175 1.355zM35.406 33.215c.215.618.102 1.22-.253 1.342-.355.122-.817-.28-1.032-.899-.215-.618-.102-1.219.253-1.342.354-.122.816.28 1.032.899zM30.85 34.876c.338.164.845-.18 1.133-.77.288-.588.248-1.198-.09-1.361-.337-.164-.844.18-1.132.768-.288.589-.248 1.199.09 1.363zM35.388 31.274c.355-.55.898-.833 1.214-.631.316.202.285.813-.07 1.363-.355.551-.9.834-1.215.632-.316-.202-.284-.813.07-1.364zM38.147 30.732c-.325-.187-.855.12-1.183.688-.328.567-.331 1.178-.006 1.365.325.187.855-.12 1.183-.688.329-.567.331-1.178.006-1.365zM33.86 33.216c-.02.654-.34 1.176-.716 1.164-.375-.011-.663-.55-.643-1.205.02-.655.34-1.176.716-1.164.375.01.663.55.643 1.205zM33.186 38.717c.324.19.856-.115 1.189-.68.333-.564.34-1.175.016-1.364-.323-.19-.855.114-1.188.678-.333.565-.34 1.176-.017 1.366zM35.973 36.155c-.08.65-.446 1.14-.818 1.095-.373-.045-.61-.608-.532-1.258.08-.65.446-1.14.819-1.095.372.045.61.608.53 1.258zM33.56 36.528c.368.08.778-.375.917-1.015.139-.64-.046-1.223-.412-1.302-.367-.08-.778.375-.917 1.015-.139.64.046 1.223.413 1.302zM33.957 30.674c.39-.527.95-.775 1.252-.553.302.222.232.829-.157 1.356-.39.527-.95.775-1.253.553-.302-.221-.232-.829.158-1.356zM32.446 34.128c-.374-.037-.729.461-.793 1.113-.065.652.186 1.21.56 1.246.373.037.728-.462.792-1.113.065-.652-.186-1.21-.56-1.246zM31.47 38.431c.613-.238 1.22-.149 1.356.2.137.348-.248.824-.86 1.062-.612.239-1.219.15-1.356-.199-.136-.349.249-.824.86-1.063zM28.972 39.503c.28.25.862.054 1.298-.435.437-.489.564-1.087.283-1.336-.28-.248-.861-.054-1.298.435-.437.49-.564 1.088-.283 1.336zM29.828 41.017c-.604.255-1.213.182-1.36-.163-.146-.344.226-.83.831-1.085s1.214-.183 1.36.162c.146.345-.225.83-.83 1.086zM28.372 38.665c.369.071.768-.393.893-1.036.123-.643-.075-1.221-.443-1.292-.369-.07-.768.393-.892 1.036-.125.643.074 1.222.442 1.292zM25.853 36.696c-.545.366-1.156.412-1.366.102-.21-.31.061-.859.606-1.225.544-.366 1.156-.412 1.366-.102.21.31-.062.859-.606 1.225zM31.591 35.998c-.172-.332-.785-.358-1.369-.058-.583.3-.917.813-.745 1.145.172.333.785.359 1.369.059s.917-.813.745-1.146zM31.515 36.851c.568-.327 1.182-.33 1.37-.006.187.324-.122.852-.69 1.18-.57.327-1.183.33-1.37.006-.188-.324.12-.852.69-1.18zM26.721 37.511c.32.197.858-.094 1.204-.651s.367-1.168.048-1.365c-.32-.197-.858.095-1.204.652s-.367 1.168-.048 1.364zM25.952 41.292c-.571.323-1.185.321-1.37-.004-.185-.325.128-.851.7-1.174.57-.323 1.184-.321 1.37.004.185.326-.128.851-.7 1.174zM27.023 40.999c.3.225.863-.017 1.258-.54.394-.524.471-1.13.17-1.355-.3-.225-.862.017-1.257.54-.395.524-.471 1.13-.171 1.355zM27.307 39.157c-.441.485-1.024.674-1.302.422-.278-.251-.146-.848.296-1.333.441-.485 1.024-.674 1.302-.422.278.251.146.848-.296 1.333zM30.646 34.852c-.15-.343-.76-.408-1.362-.145-.601.262-.967.753-.816 1.096.15.343.76.408 1.362.145.601-.263.967-.754.817-1.096zM24.998 37.514c.383-.533.94-.787 1.245-.57.305.218.242.827-.14 1.359-.383.532-.94.787-1.245.569-.306-.218-.243-.826.14-1.358zM24.314 41.034c.056-.37-.425-.75-1.074-.848-.65-.099-1.222.122-1.278.491-.057.37.424.75 1.074.848.649.099 1.221-.121 1.278-.491zM21.88 40.14c-.623.205-1.224.084-1.342-.271-.118-.355.292-.81.915-1.016.624-.206 1.225-.085 1.343.27.118.355-.292.81-.915 1.016zM19.424 40.788c-.046.371.445.738 1.097.818.652.081 1.218-.154 1.264-.526.046-.371-.445-.737-1.097-.818-.651-.08-1.217.155-1.264.526zM21.732 38.392c-.43.495-1.009.697-1.293.452-.284-.244-.165-.844.265-1.34.43-.494 1.008-.697 1.292-.452.284.245.166.845-.264 1.34zM18.011 35.29c.026.374.579.64 1.234.593.655-.045 1.165-.385 1.14-.758-.027-.373-.58-.639-1.235-.593-.655.046-1.165.385-1.139.758zM23.409 37.406c.656.03 1.174.359 1.156.733-.018.373-.564.651-1.22.62-.657-.03-1.174-.359-1.156-.732.017-.374.564-.652 1.22-.621zM25.26 39.517c0-.374-.533-.678-1.19-.678-.657 0-1.189.304-1.189.678 0 .374.532.677 1.19.677.656 0 1.189-.303 1.189-.677zM20.957 37.058c-.578.31-1.191.294-1.369-.036-.178-.33.147-.848.726-1.157.579-.31 1.192-.294 1.37.035.177.33-.148.848-.727 1.158zM15.841 39.227c-.003.374.528.681 1.184.686.657.005 1.192-.294 1.195-.668.003-.374-.527-.681-1.184-.686-.657-.005-1.192.294-1.195.668zM19.46 40.352c-.604.256-1.213.185-1.36-.16-.148-.343.223-.83.828-1.087.604-.256 1.213-.185 1.36.159.147.344-.223.831-.828 1.087zM17.93 38.456c.115.356.715.483 1.34.283.626-.2 1.04-.65.925-1.007-.114-.356-.714-.483-1.34-.283-.625.2-1.04.65-.925 1.007zM23.215 35.87c.653.073 1.148.433 1.107.805-.042.372-.605.615-1.258.542-.652-.072-1.148-.432-1.106-.804.041-.372.604-.615 1.257-.542zM19.459 36.293c-.155-.34-.766-.398-1.364-.128-.599.27-.958.766-.803 1.107.155.34.765.398 1.364.127.598-.27.957-.765.803-1.106zM15.232 37.603c.513.41.739.978.504 1.27-.234.292-.84.198-1.353-.211-.513-.41-.74-.977-.505-1.27.235-.292.84-.197 1.354.211zM13.05 35.983c-.075.366.385.77 1.028.903.643.132 1.226-.058 1.302-.424.076-.366-.384-.77-1.027-.903-.643-.133-1.226.057-1.302.424zM12.164 37.479c-.524-.395-.765-.957-.539-1.256.226-.298.835-.22 1.359.175s.765.957.539 1.255c-.226.299-.835.22-1.359-.174zM13.48 35.046c.122.354.725.467 1.345.252.621-.214 1.025-.675.902-1.028-.123-.354-.726-.467-1.347-.252-.62.214-1.024.675-.9 1.028zM13.93 31.887c-.59-.287-.935-.793-.77-1.129.164-.336.776-.376 1.366-.09.59.288.936.793.771 1.13-.164.336-.776.376-1.367.089zM17.406 36.49c.203-.314-.08-.856-.634-1.21-.552-.354-1.165-.385-1.368-.07-.203.315.081.856.634 1.21s1.165.386 1.368.07zM16.626 36.851c.57.328.878.856.69 1.18-.187.324-.8.32-1.37-.006-.568-.328-.877-.856-.69-1.18.188-.324.802-.321 1.37.006zM13.656 33.044c-.011.374.512.693 1.168.713.657.02 1.198-.267 1.21-.64.011-.375-.512-.694-1.168-.714-.657-.02-1.198.267-1.21.641zM9.986 34.27c-.566-.331-.87-.862-.68-1.184.19-.323.803-.315 1.369.017.566.331.871.862.681 1.184-.19.323-.803.315-1.37-.016zM10.777 35.048c-.046.371.446.736 1.098.815.652.08 1.218-.158 1.263-.529.045-.371-.447-.737-1.099-.816-.652-.078-1.217.158-1.262.53zM12.52 34.372c-.643-.138-1.098-.547-1.02-.913.08-.365.665-.55 1.307-.41.642.138 1.098.547 1.019.912-.08.366-.665.55-1.306.411zM17.93 35.102c.222-.301-.026-.86-.555-1.248-.53-.388-1.139-.458-1.361-.157-.223.301.026.86.555 1.248s1.138.459 1.36.157zM12.793 31.558c.653.064 1.153.418 1.117.79-.037.372-.597.622-1.25.558-.654-.064-1.155-.418-1.118-.79.037-.373.597-.623 1.25-.558zM9.392 32.727c.35-.136.439-.741.2-1.35-.24-.61-.717-.994-1.067-.858s-.439.74-.2 1.35c.24.61.717.994 1.067.858zM8.953 30.18c-.491-.436-.687-1.015-.437-1.294.25-.28.85-.154 1.34.282.491.435.687 1.014.437 1.294-.25.28-.85.153-1.34-.282zM7.16 28.384c-.345.145-.418.752-.162 1.355.256.604.743.974 1.089.829.346-.146.419-.753.163-1.356-.256-.603-.744-.974-1.09-.828zM10.396 29.177c-.645-.123-1.11-.521-1.04-.889.072-.367.652-.565 1.297-.441.645.123 1.11.521 1.04.889-.071.367-.651.565-1.296.441zM11.23 24.415c-.31.21-.265.82.103 1.362.367.543.917.813 1.228.604.312-.21.266-.82-.101-1.362-.368-.543-.918-.813-1.23-.604zM12.091 30.132c.302.582.276 1.193-.058 1.364-.334.172-.848-.16-1.15-.743-.3-.581-.274-1.192.06-1.364.333-.171.847.161 1.149.743zM11.183 32.785c.325-.187.322-.798-.006-1.365-.329-.567-.858-.875-1.183-.688-.325.187-.323.798.006 1.365.328.567.858.875 1.183.688zM11.168 27.842c-.558-.344-.851-.881-.653-1.2.197-.318.81-.296 1.369.048.558.345.85.882.653 1.2-.197.318-.81.297-1.369-.048zM6.726 24.51c-.327.185-.329.796-.005 1.366.324.57.852.881 1.178.697.327-.185.329-.796.005-1.365-.325-.57-.852-.882-1.178-.697zM7.558 28.197c-.525-.394-.768-.955-.543-1.254.226-.3.835-.223 1.36.17.525.394.768.955.542 1.254-.226.3-.834.223-1.36-.17zM8.44 25.928c-.252.277-.063.858.424 1.299.486.44 1.085.572 1.337.294.253-.277.063-.858-.424-1.298-.486-.44-1.085-.572-1.337-.295zM13.329 29.197c.263.6.198 1.208-.146 1.358-.344.15-.836-.215-1.1-.814-.263-.6-.198-1.208.146-1.358.344-.15.836.214 1.1.814zM11.083 26.166c.219-.304-.037-.86-.57-1.241-.535-.381-1.145-.444-1.363-.14-.219.304.037.86.57 1.241.535.381 1.145.444 1.363.14z"
      fill="#fff"
    ></path>
    <path
      d="M28.717 7.213c.046-.371-.445-.738-1.097-.818-.652-.081-1.218.154-1.264.526-.046.37.445.737 1.096.818.652.08 1.218-.155 1.265-.526zM23.827 6.967c-.056.37.424.75 1.074.848.65.098 1.222-.122 1.278-.492.056-.37-.424-.749-1.074-.847-.65-.099-1.221.121-1.278.491zM22.189 6.709c.571-.323 1.184-.321 1.37.004.185.325-.128.851-.7 1.174-.571.323-1.184.321-1.37-.004-.185-.326.128-.851.7-1.174zM18.312 6.984c.605-.255 1.214-.182 1.36.163.147.344-.225.83-.83 1.085s-1.214.182-1.36-.162c-.147-.345.225-.83.83-1.086zM16.67 9.57c-.612.238-1.218.149-1.355-.2-.137-.348.248-.824.86-1.062.612-.239 1.219-.15 1.355.199.137.348-.248.824-.86 1.063zM14.955 9.284c-.324-.19-.856.115-1.189.679-.333.565-.34 1.176-.016 1.365.323.19.855-.114 1.188-.679.333-.564.34-1.175.017-1.365zM11.807 11.596c-.3-.225-.864.015-1.26.537-.396.523-.474 1.13-.175 1.355.3.225.864-.015 1.26-.538.396-.522.474-1.128.175-1.354zM11.142 14.041c.133-.641.539-1.1.907-1.024.367.076.557.657.425 1.298-.133.641-.539 1.1-.906 1.024-.368-.076-.559-.657-.426-1.298zM9.149 15.694c.293.233.863.008 1.273-.503.41-.511.505-1.116.212-1.35-.293-.233-.863-.008-1.274.504-.41.511-.505 1.115-.211 1.349zM8.105 16.979c.005-.655.313-1.183.688-1.18.376.002.676.535.67 1.19-.004.655-.312 1.183-.688 1.18-.375-.003-.675-.535-.67-1.19zM12.148 19.191c-.046-.653.22-1.204.595-1.23.374-.026.715.482.761 1.135.046.654-.22 1.204-.595 1.23-.374.026-.715-.482-.76-1.135zM6.406 20.462c.081-.65.449-1.139.821-1.092.373.046.609.61.528 1.26-.081.65-.449 1.139-.821 1.093-.373-.047-.609-.61-.528-1.26zM8.15 20.48c-.357.117-.478.717-.272 1.338.207.621.663 1.03 1.02.912.356-.117.477-.717.27-1.338-.206-.622-.662-1.03-1.019-.912zM6.98 24.243c.372.056.753-.423.851-1.07.099-.648-.122-1.218-.493-1.274-.371-.056-.752.423-.85 1.07-.1.647.121 1.218.493 1.274zM9.177 20.381c-.246.283-.042.86.454 1.288.497.429 1.099.547 1.345.264.245-.283.042-.86-.455-1.288-.496-.428-1.098-.546-1.344-.264zM9.885 24.493c.375.018.704-.498.735-1.152.031-.654-.247-1.199-.622-1.216-.375-.018-.704.498-.735 1.152-.031.654.247 1.198.622 1.216zM9.182 24c0 .655-.304 1.186-.68 1.186-.375 0-.679-.53-.679-1.186 0-.654.304-1.185.68-1.185.375 0 .68.53.68 1.185zM11.005 19.533c-.33.177-.346.788-.035 1.365.31.577.83.9 1.161.724.331-.178.347-.789.036-1.366-.311-.576-.831-.9-1.162-.723zM7.824 18.05c-.345.146-.416.753-.159 1.355.257.603.746.972 1.091.826.346-.147.417-.754.16-1.356-.258-.603-.746-.972-1.092-.826zM9.283 19.216c-.2-.623-.074-1.221.284-1.336.357-.114.81.299 1.01.922.2.624.073 1.222-.284 1.336-.357.114-.81-.298-1.01-.922zM11.354 24.251c.373.041.734-.453.807-1.103.072-.651-.171-1.212-.544-1.253-.373-.042-.735.452-.807 1.103-.073.65.17 1.212.544 1.253zM11.865 18.044c.271.597.214 1.205-.128 1.36-.342.154-.839-.204-1.11-.8-.271-.597-.214-1.205.128-1.36.342-.154.839.204 1.11.8zM12.735 14.786c-.215-.618-.102-1.22.253-1.342.355-.122.817.28 1.032.898.215.62.102 1.22-.253 1.342-.355.123-.817-.28-1.032-.898zM17.29 13.125c-.337-.164-.844.18-1.132.769-.288.588-.248 1.198.09 1.362.337.164.844-.18 1.132-.768.288-.589.248-1.199-.09-1.363zM12.753 16.727c-.355.55-.899.833-1.214.631-.316-.202-.285-.813.07-1.364.355-.55.9-.833 1.215-.631.316.202.284.813-.07 1.364zM9.994 17.269c.325.187.854-.121 1.183-.688.328-.567.331-1.178.006-1.365-.325-.187-.855.12-1.183.688-.329.567-.331 1.178-.006 1.365zM14.281 14.785c.02-.655.34-1.176.716-1.165.375.012.663.552.643 1.206-.02.654-.34 1.176-.716 1.164-.375-.011-.663-.55-.643-1.205zM12.168 11.846c.08-.65.446-1.14.818-1.095.373.045.61.608.531 1.258-.079.65-.445 1.14-.818 1.095-.372-.045-.61-.608-.53-1.258zM14.58 11.473c-.367-.08-.777.375-.916 1.015-.14.64.046 1.223.412 1.302.367.079.777-.375.916-1.015.14-.64-.045-1.223-.412-1.303zM14.184 17.327c-.39.527-.95.775-1.252.553-.303-.222-.232-.829.157-1.356.39-.528.95-.775 1.253-.554.302.222.231.83-.158 1.357zM15.695 13.873c.374.037.729-.461.793-1.113.065-.652-.186-1.21-.56-1.246-.373-.037-.728.462-.793 1.113-.064.652.187 1.21.56 1.246zM19.169 8.497c-.28-.248-.862-.053-1.298.436-.437.489-.564 1.087-.283 1.336.28.248.861.053 1.298-.436.437-.489.563-1.087.283-1.336zM19.768 9.336c-.368-.071-.768.393-.892 1.036s.075 1.221.443 1.292c.369.07.768-.393.892-1.036s-.074-1.222-.443-1.292zM22.288 11.305c.545-.366 1.156-.412 1.366-.102.21.31-.061.859-.606 1.225-.544.366-1.156.412-1.366.101-.21-.31.062-.858.606-1.224zM16.55 12.003c.172.332.785.358 1.368.058.584-.3.918-.813.746-1.145-.172-.333-.785-.359-1.369-.059s-.917.813-.745 1.146zM16.626 11.15c-.569.327-1.182.33-1.37.006-.187-.324.122-.852.69-1.18.57-.327 1.183-.33 1.37-.006.188.324-.12.852-.69 1.18zM21.42 10.49c-.32-.197-.859.094-1.204.651-.346.557-.367 1.168-.048 1.365.32.196.858-.095 1.204-.652.345-.557.367-1.168.048-1.365zM21.118 7.002c-.3-.225-.863.017-1.258.54-.394.524-.471 1.13-.171 1.355.3.225.863-.017 1.258-.54.395-.524.471-1.13.171-1.355zM20.834 8.844c.441-.485 1.024-.674 1.302-.422.278.25.146.848-.296 1.333-.441.484-1.024.674-1.302.422-.278-.251-.146-.848.296-1.333zM17.494 13.15c.151.342.76.407 1.363.144.601-.263.967-.753.816-1.096-.15-.343-.76-.408-1.362-.145-.602.263-.967.753-.817 1.096zM23.143 10.487c-.383.533-.94.787-1.245.57-.305-.219-.243-.827.14-1.359s.94-.787 1.245-.569c.305.218.243.826-.14 1.358zM26.26 7.862c.624-.206 1.225-.085 1.343.27.118.355-.292.81-.915 1.016-.624.206-1.225.085-1.343-.27-.118-.355.292-.81.915-1.016zM26.41 9.61c.43-.496 1.008-.698 1.292-.454.283.245.165.845-.265 1.34-.43.495-1.009.698-1.293.453-.283-.245-.165-.845.265-1.34zM30.13 12.71c-.026-.373-.579-.638-1.234-.593-.656.046-1.166.386-1.14.76.027.372.58.638 1.235.592.655-.046 1.165-.385 1.139-.758zM24.732 10.595c-.656-.031-1.174-.36-1.156-.733.018-.373.564-.651 1.22-.62.656.03 1.174.359 1.156.732-.018.374-.564.652-1.22.62zM22.881 8.484c0 .374.532.678 1.19.678.656 0 1.189-.304 1.189-.678 0-.374-.533-.677-1.19-.677-.657 0-1.189.303-1.189.677zM27.183 10.943c.579-.31 1.192-.294 1.37.036.177.33-.148.848-.726 1.157-.579.31-1.192.294-1.37-.035-.177-.33.148-.848.726-1.158zM32.3 8.774c.003-.374-.528-.681-1.185-.686-.656-.006-1.191.294-1.194.668-.003.374.527.681 1.184.686.657.005 1.192-.294 1.195-.668zM28.68 7.65c.605-.257 1.214-.186 1.361.158.147.344-.223.831-.828 1.088-.604.256-1.213.185-1.36-.159-.147-.344.223-.831.828-1.088zM30.21 9.545c-.114-.356-.714-.483-1.34-.283-.625.2-1.04.65-.925 1.007.115.356.715.483 1.34.283.626-.2 1.04-.65.926-1.007zM24.926 12.13c-.653-.072-1.148-.432-1.107-.804.041-.372.604-.615 1.257-.542.653.072 1.149.432 1.107.804-.041.372-.604.615-1.257.542zM28.682 11.708c.155.34.766.398 1.364.127.599-.27.958-.765.803-1.106-.155-.34-.765-.398-1.364-.127-.598.27-.958.765-.803 1.106zM32.91 10.397c-.514-.409-.74-.977-.505-1.269.234-.292.84-.198 1.353.211.513.409.74.977.505 1.27-.235.292-.84.197-1.354-.212zM35.09 12.018c.076-.366-.384-.77-1.027-.903-.644-.132-1.227.057-1.302.424-.076.366.384.77 1.027.903.643.132 1.226-.057 1.302-.424zM35.977 10.522c.524.395.765.957.539 1.255-.227.299-.835.22-1.359-.174-.524-.395-.765-.957-.539-1.255.226-.299.835-.22 1.359.174zM34.662 12.955c-.123-.354-.726-.466-1.347-.252-.62.214-1.024.675-.9 1.028.122.354.725.466 1.346.252.62-.214 1.024-.675.9-1.028zM34.21 16.114c.59.287.936.792.772 1.129-.165.336-.777.376-1.367.089-.59-.287-.936-.792-.772-1.129.165-.336.777-.376 1.367-.089zM30.735 11.51c-.203.315.08.857.633 1.21.553.354 1.166.386 1.369.071.202-.315-.081-.857-.634-1.21-.553-.354-1.165-.386-1.368-.071zM31.515 11.15c-.57-.328-.878-.856-.69-1.18.187-.324.8-.321 1.37.006.568.328.877.856.69 1.18-.188.324-.802.321-1.37-.006zM34.485 14.957c.011-.374-.512-.693-1.168-.713-.657-.02-1.199.267-1.21.64-.011.374.512.694 1.168.714.657.02 1.198-.267 1.21-.641zM38.154 13.73c.567.332.872.862.682 1.185-.19.323-.804.315-1.37-.017-.566-.331-.872-.862-.681-1.184.19-.323.803-.315 1.37.016zM37.364 12.953c.046-.371-.446-.736-1.098-.816-.652-.079-1.218.159-1.263.53-.045.371.447.736 1.099.815.652.08 1.217-.158 1.262-.529zM35.621 13.629c.642.138 1.098.547 1.019.912-.08.366-.664.55-1.306.412-.642-.139-1.099-.548-1.019-.913.08-.366.664-.55 1.306-.411zM30.211 12.899c-.222.301.026.86.555 1.248.53.388 1.139.458 1.361.157.223-.302-.026-.86-.555-1.248-.53-.388-1.138-.459-1.36-.157zM35.348 16.443c-.653-.064-1.154-.418-1.117-.79.037-.372.597-.622 1.25-.558.654.064 1.154.418 1.118.79-.037.373-.597.623-1.25.558zM38.75 15.274c-.35.136-.44.74-.2 1.35.239.61.716.994 1.065.858.35-.136.44-.741.2-1.35-.239-.61-.716-.994-1.066-.858zM39.188 17.821c.49.435.686 1.015.437 1.294-.25.28-.85.154-1.34-.282-.491-.435-.687-1.014-.437-1.294.25-.28.85-.153 1.34.282zM40.98 19.617c.346-.146.419-.753.163-1.356-.256-.603-.743-.973-1.09-.828-.345.146-.418.753-.162 1.356.256.603.744.974 1.09.828zM37.744 18.824c.645.123 1.11.521 1.04.889-.07.367-.651.565-1.296.441-.645-.124-1.11-.522-1.04-.889.07-.367.651-.565 1.296-.441zM36.91 23.586c.311-.21.266-.82-.102-1.362-.367-.543-.917-.813-1.228-.604-.312.21-.266.819.101 1.362.368.543.918.813 1.229.604zM36.05 17.869c-.302-.582-.276-1.193.058-1.364.334-.172.848.16 1.15.742.3.582.274 1.193-.06 1.365-.333.171-.848-.161-1.149-.743zM36.958 15.216c-.325.187-.322.798.006 1.365s.858.875 1.183.688c.325-.187.323-.798-.006-1.365-.328-.567-.858-.875-1.183-.688zM36.972 20.159c.56.344.852.881.654 1.2-.197.318-.81.296-1.369-.048-.558-.345-.851-.882-.654-1.2.198-.318.81-.297 1.37.048zM41.415 23.49c.327-.184.329-.796.005-1.365-.324-.57-.852-.882-1.178-.697-.327.185-.329.796-.005 1.365.324.57.852.882 1.178.697zM40.583 19.804c.525.394.768.955.542 1.254-.225.3-.834.223-1.359-.17-.525-.394-.768-.956-.542-1.255.225-.299.834-.222 1.359.171zM39.701 22.073c.252-.277.063-.859-.424-1.299-.486-.44-1.085-.572-1.337-.295-.253.277-.063.859.424 1.299.486.44 1.085.572 1.337.295zM34.812 18.804c-.263-.6-.198-1.208.146-1.358.344-.15.836.214 1.1.814.263.6.198 1.208-.146 1.358-.344.15-.836-.214-1.1-.814zM37.057 21.835c-.218.304.037.86.571 1.241.534.381 1.145.444 1.363.14.219-.304-.037-.86-.57-1.241-.535-.382-1.145-.444-1.364-.14zM40.31 24.828c.098-.647.48-1.126.85-1.07.371.056.592.627.494 1.274-.1.647-.48 1.126-.851 1.07-.371-.056-.592-.627-.493-1.274zM39.992 27.521c.356-.117.477-.717.27-1.338-.206-.622-.662-1.03-1.019-.912-.356.117-.477.716-.27 1.338.206.621.662 1.03 1.019.912zM41.735 27.538c-.081.65-.449 1.14-.821 1.093-.373-.046-.61-.61-.528-1.26.08-.65.448-1.139.821-1.093.373.047.609.61.528 1.26zM38.964 27.62c.245-.283.042-.86-.455-1.289-.496-.428-1.098-.546-1.344-.263-.245.282-.042.86.455 1.288.496.428 1.098.546 1.344.264zM35.993 28.81c.046.653-.22 1.204-.595 1.23-.375.026-.715-.482-.761-1.136-.046-.653.22-1.203.595-1.23.374-.026.715.483.76 1.136zM38.256 23.508c-.375-.018-.705.498-.736 1.152-.03.654.248 1.198.623 1.216.375.018.704-.498.735-1.152.031-.654-.248-1.199-.622-1.216zM38.959 24c0-.654.304-1.185.68-1.185.375 0 .679.53.679 1.185s-.304 1.186-.68 1.186c-.375 0-.68-.53-.68-1.186zM37.136 28.468c.33-.177.346-.788.035-1.365-.31-.577-.83-.9-1.161-.724-.331.177-.347.789-.036 1.365.31.577.83.901 1.162.724zM40.036 31.022c-.005.655-.313 1.183-.689 1.18-.375-.002-.675-.535-.67-1.19.005-.655.313-1.183.689-1.18.375.002.675.535.67 1.19zM40.317 29.951c.345-.146.416-.753.159-1.356-.258-.602-.746-.971-1.092-.825-.345.147-.416.754-.159 1.356.258.603.746.972 1.092.825zM38.858 28.785c.2.623.074 1.221-.284 1.335-.357.115-.81-.298-1.01-.922-.2-.623-.074-1.221.284-1.335.357-.114.81.298 1.01.922zM36.787 23.75c-.373-.041-.734.453-.807 1.103-.072.65.171 1.212.544 1.253.373.042.734-.452.807-1.103.073-.65-.17-1.212-.544-1.253zM36.276 29.956c-.271-.596-.214-1.204.128-1.359.342-.154.839.204 1.11.8.271.597.214 1.205-.128 1.36-.342.154-.84-.204-1.11-.8zM38.992 32.307c-.293-.233-.863-.008-1.273.503-.41.511-.505 1.115-.212 1.349.293.234.863.008 1.273-.503.41-.511.505-1.115.212-1.349zM36.998 33.96c-.132.641-.538 1.1-.906 1.024-.367-.076-.558-.657-.425-1.298.133-.641.539-1.1.906-1.024.368.075.558.657.425 1.298zM36.334 36.405c.3.225.863-.015 1.26-.538.395-.522.474-1.128.174-1.354-.3-.225-.863.015-1.259.537-.396.523-.474 1.13-.175 1.355zM35.406 33.215c.215.618.102 1.22-.253 1.342-.355.122-.817-.28-1.032-.899-.215-.618-.102-1.219.253-1.342.354-.122.816.28 1.032.899zM30.85 34.876c.338.164.845-.18 1.133-.77.288-.588.248-1.198-.09-1.361-.337-.164-.844.18-1.132.768-.288.589-.248 1.199.09 1.363zM35.388 31.274c.355-.55.898-.833 1.214-.631.316.202.285.813-.07 1.363-.355.551-.9.834-1.215.632-.316-.202-.284-.813.07-1.364zM38.147 30.732c-.325-.187-.855.12-1.183.688-.328.567-.331 1.178-.006 1.365.325.187.855-.12 1.183-.688.329-.567.331-1.178.006-1.365zM33.86 33.216c-.02.654-.34 1.176-.716 1.164-.375-.011-.663-.55-.643-1.205.02-.655.34-1.176.716-1.164.375.01.663.55.643 1.205zM33.186 38.717c.324.19.856-.115 1.189-.68.333-.564.34-1.175.016-1.364-.323-.19-.855.114-1.188.678-.333.565-.34 1.176-.017 1.366zM35.973 36.155c-.08.65-.446 1.14-.818 1.095-.373-.045-.61-.608-.532-1.258.08-.65.446-1.14.819-1.095.372.045.61.608.53 1.258zM33.56 36.528c.368.08.778-.375.917-1.015.139-.64-.046-1.223-.412-1.302-.367-.08-.778.375-.917 1.015-.139.64.046 1.223.413 1.302zM33.957 30.674c.39-.527.95-.775 1.252-.553.302.222.232.829-.157 1.356-.39.527-.95.775-1.253.553-.302-.221-.232-.829.158-1.356zM32.446 34.128c-.374-.037-.729.461-.793 1.113-.065.652.186 1.21.56 1.246.373.037.728-.462.792-1.113.065-.652-.186-1.21-.56-1.246zM31.47 38.431c.613-.238 1.22-.149 1.356.2.137.348-.248.824-.86 1.062-.612.239-1.219.15-1.356-.199-.136-.349.249-.824.86-1.063zM28.972 39.503c.28.25.862.054 1.298-.435.437-.489.564-1.087.283-1.336-.28-.248-.861-.054-1.298.435-.437.49-.564 1.088-.283 1.336zM29.828 41.017c-.604.255-1.213.182-1.36-.163-.146-.344.226-.83.831-1.085s1.214-.183 1.36.162c.146.345-.225.83-.83 1.086zM28.372 38.665c.369.071.768-.393.893-1.036.123-.643-.075-1.221-.443-1.292-.369-.07-.768.393-.892 1.036-.125.643.074 1.222.442 1.292zM25.853 36.696c-.545.366-1.156.412-1.366.102-.21-.31.061-.859.606-1.225.544-.366 1.156-.412 1.366-.102.21.31-.062.859-.606 1.225zM31.591 35.998c-.172-.332-.785-.358-1.369-.058-.583.3-.917.813-.745 1.145.172.333.785.359 1.369.059s.917-.813.745-1.146zM31.515 36.851c.568-.327 1.182-.33 1.37-.006.187.324-.122.852-.69 1.18-.57.327-1.183.33-1.37.006-.188-.324.12-.852.69-1.18zM26.721 37.511c.32.197.858-.094 1.204-.651s.367-1.168.048-1.365c-.32-.197-.858.095-1.204.652s-.367 1.168-.048 1.364zM25.952 41.292c-.571.323-1.185.321-1.37-.004-.185-.325.128-.851.7-1.174.57-.323 1.184-.321 1.37.004.185.326-.128.851-.7 1.174zM27.023 40.999c.3.225.863-.017 1.258-.54.394-.524.471-1.13.17-1.355-.3-.225-.862.017-1.257.54-.395.524-.471 1.13-.171 1.355zM27.307 39.157c-.441.485-1.024.674-1.302.422-.278-.251-.146-.848.296-1.333.441-.485 1.024-.674 1.302-.422.278.251.146.848-.296 1.333zM30.646 34.852c-.15-.343-.76-.408-1.362-.145-.601.262-.967.753-.816 1.096.15.343.76.408 1.362.145.601-.263.967-.754.817-1.096zM24.998 37.514c.383-.533.94-.787 1.245-.57.305.218.242.827-.14 1.359-.383.532-.94.787-1.245.569-.306-.218-.243-.826.14-1.358zM24.314 41.034c.056-.37-.425-.75-1.074-.848-.65-.099-1.222.122-1.278.491-.057.37.424.75 1.074.848.649.099 1.221-.121 1.278-.491zM21.88 40.14c-.623.205-1.224.084-1.342-.271-.118-.355.292-.81.915-1.016.624-.206 1.225-.085 1.343.27.118.355-.292.81-.915 1.016zM19.424 40.788c-.046.371.445.738 1.097.818.652.081 1.218-.154 1.264-.526.046-.371-.445-.737-1.097-.818-.651-.08-1.217.155-1.264.526zM21.732 38.392c-.43.495-1.009.697-1.293.452-.284-.244-.165-.844.265-1.34.43-.494 1.008-.697 1.292-.452.284.245.166.845-.264 1.34zM18.011 35.29c.026.374.579.64 1.234.593.655-.045 1.165-.385 1.14-.758-.027-.373-.58-.639-1.235-.593-.655.046-1.165.385-1.139.758zM23.409 37.406c.656.03 1.174.359 1.156.733-.018.373-.564.651-1.22.62-.657-.03-1.174-.359-1.156-.732.017-.374.564-.652 1.22-.621zM25.26 39.517c0-.374-.533-.678-1.19-.678-.657 0-1.189.304-1.189.678 0 .374.532.677 1.19.677.656 0 1.189-.303 1.189-.677zM20.957 37.058c-.578.31-1.191.294-1.369-.036-.178-.33.147-.848.726-1.157.579-.31 1.192-.294 1.37.035.177.33-.148.848-.727 1.158zM15.841 39.227c-.003.374.528.681 1.184.686.657.005 1.192-.294 1.195-.668.003-.374-.527-.681-1.184-.686-.657-.005-1.192.294-1.195.668zM19.46 40.352c-.604.256-1.213.185-1.36-.16-.148-.343.223-.83.828-1.087.604-.256 1.213-.185 1.36.159.147.344-.223.831-.828 1.087zM17.93 38.456c.115.356.715.483 1.34.283.626-.2 1.04-.65.925-1.007-.114-.356-.714-.483-1.34-.283-.625.2-1.04.65-.925 1.007zM23.215 35.87c.653.073 1.148.433 1.107.805-.042.372-.605.615-1.258.542-.652-.072-1.148-.432-1.106-.804.041-.372.604-.615 1.257-.542zM19.459 36.293c-.155-.34-.766-.398-1.364-.128-.599.27-.958.766-.803 1.107.155.34.765.398 1.364.127.598-.27.957-.765.803-1.106zM15.232 37.603c.513.41.739.978.504 1.27-.234.292-.84.198-1.353-.211-.513-.41-.74-.977-.505-1.27.235-.292.84-.197 1.354.211zM13.05 35.983c-.075.366.385.77 1.028.903.643.132 1.226-.058 1.302-.424.076-.366-.384-.77-1.027-.903-.643-.133-1.226.057-1.302.424zM12.164 37.479c-.524-.395-.765-.957-.539-1.256.226-.298.835-.22 1.359.175s.765.957.539 1.255c-.226.299-.835.22-1.359-.174zM13.48 35.046c.122.354.725.467 1.345.252.621-.214 1.025-.675.902-1.028-.123-.354-.726-.467-1.347-.252-.62.214-1.024.675-.9 1.028zM13.93 31.887c-.59-.287-.935-.793-.77-1.129.164-.336.776-.376 1.366-.09.59.288.936.793.771 1.13-.164.336-.776.376-1.367.089zM17.406 36.49c.203-.314-.08-.856-.634-1.21-.552-.354-1.165-.385-1.368-.07-.203.315.081.856.634 1.21s1.165.386 1.368.07zM16.626 36.851c.57.328.878.856.69 1.18-.187.324-.8.32-1.37-.006-.568-.328-.877-.856-.69-1.18.188-.324.802-.321 1.37.006zM13.656 33.044c-.011.374.512.693 1.168.713.657.02 1.198-.267 1.21-.64.011-.375-.512-.694-1.168-.714-.657-.02-1.198.267-1.21.641zM9.986 34.27c-.566-.331-.87-.862-.68-1.184.19-.323.803-.315 1.369.017.566.331.871.862.681 1.184-.19.323-.803.315-1.37-.016zM10.777 35.048c-.046.371.446.736 1.098.815.652.08 1.218-.158 1.263-.529.045-.371-.447-.737-1.099-.816-.652-.078-1.217.158-1.262.53zM12.52 34.372c-.643-.138-1.098-.547-1.02-.913.08-.365.665-.55 1.307-.41.642.138 1.098.547 1.019.912-.08.366-.665.55-1.306.411zM17.93 35.102c.222-.301-.026-.86-.555-1.248-.53-.388-1.139-.458-1.361-.157-.223.301.026.86.555 1.248s1.138.459 1.36.157zM12.793 31.558c.653.064 1.153.418 1.117.79-.037.372-.597.622-1.25.558-.654-.064-1.155-.418-1.118-.79.037-.373.597-.623 1.25-.558zM9.392 32.727c.35-.136.439-.741.2-1.35-.24-.61-.717-.994-1.067-.858s-.439.74-.2 1.35c.24.61.717.994 1.067.858zM8.953 30.18c-.491-.436-.687-1.015-.437-1.294.25-.28.85-.154 1.34.282.491.435.687 1.014.437 1.294-.25.28-.85.153-1.34-.282zM7.16 28.384c-.345.145-.418.752-.162 1.355.256.604.743.974 1.089.829.346-.146.419-.753.163-1.356-.256-.603-.744-.974-1.09-.828zM10.396 29.177c-.645-.123-1.11-.521-1.04-.889.072-.367.652-.565 1.297-.441.645.123 1.11.521 1.04.889-.071.367-.651.565-1.296.441zM11.23 24.415c-.31.21-.265.82.103 1.362.367.543.917.813 1.228.604.312-.21.266-.82-.101-1.362-.368-.543-.918-.813-1.23-.604zM12.091 30.132c.302.582.276 1.193-.058 1.364-.334.172-.848-.16-1.15-.743-.3-.581-.274-1.192.06-1.364.333-.171.847.161 1.149.743zM11.183 32.785c.325-.187.322-.798-.006-1.365-.329-.567-.858-.875-1.183-.688-.325.187-.323.798.006 1.365.328.567.858.875 1.183.688zM11.168 27.842c-.558-.344-.851-.881-.653-1.2.197-.318.81-.296 1.369.048.558.345.85.882.653 1.2-.197.318-.81.297-1.369-.048zM6.726 24.51c-.327.185-.329.796-.005 1.366.324.57.852.881 1.178.697.327-.185.329-.796.005-1.365-.325-.57-.852-.882-1.178-.697zM7.558 28.197c-.525-.394-.768-.955-.543-1.254.226-.3.835-.223 1.36.17.525.394.768.955.542 1.254-.226.3-.834.223-1.36-.17zM8.44 25.928c-.252.277-.063.858.424 1.299.486.44 1.085.572 1.337.294.253-.277.063-.858-.424-1.298-.486-.44-1.085-.572-1.337-.295zM13.329 29.197c.263.6.198 1.208-.146 1.358-.344.15-.836-.215-1.1-.814-.263-.6-.198-1.208.146-1.358.344-.15.836.214 1.1.814zM11.083 26.166c.219-.304-.037-.86-.57-1.241-.535-.381-1.145-.444-1.363-.14-.219.304.037.86.57 1.241.535.381 1.145.444 1.363.14z"
      stroke="#F4E2D8"
      stroke-width=".5"
    ></path>
  </g>
  <ellipse cx="24.07" cy="24" rx="11.894" ry="11.855" fill="#100E0E"></ellipse>
  <ellipse cx="24.07" cy="24" rx="10.875" ry="10.839" fill="#fff"></ellipse>
</svg>
