<svg width="300" height="300" viewBox="0 0 300 300" fill="none" xmlns="http://www.w3.org/2000/svg">
<circle cx="150" cy="116" r="84" fill="#FF4D00"/>
<path d="M139.696 32.6257C133.726 37.7841 128.518 43.7818 124.48 50.4655C121.617 55.2123 119.344 60.3046 117.805 65.6876C115.195 74.8178 115.134 86.1951 118.431 95.804C121.712 105.366 128.218 112.965 138.677 115.194C139.491 115.367 140.451 115.474 141.471 115.494C139.998 114.708 138.657 113.774 137.597 112.819C128.309 104.447 126.359 93.0069 128.49 82.1047C130.613 71.2506 136.799 60.6988 144.17 53.5688C148.489 49.3911 153.32 45.8952 158.495 43.0458C163.997 40.0106 169.89 37.7069 175.971 36.0919C178.34 36.8612 180.662 37.7328 182.933 38.7017C175.05 40.1691 167.407 42.7797 160.456 46.6073C155.595 49.2889 151.073 52.5661 147.043 56.4641C140.218 63.0663 134.476 72.8886 132.527 82.8585C130.587 92.7804 132.422 102.614 140.366 109.774C140.984 110.331 141.762 110.904 142.635 111.431C141.753 110.014 141.058 108.534 140.618 107.177C136.76 95.2834 140.792 84.4004 148.089 76.0246C155.353 67.6857 165.987 61.6407 175.935 59.1515C181.781 57.6889 187.729 57.0775 193.651 57.2017C200.065 57.3314 206.449 58.3241 212.641 60.0331C214.297 61.8862 215.873 63.8133 217.362 65.8087C209.69 63.0512 201.635 61.4362 193.57 61.2667C188.003 61.1542 182.431 61.7306 176.976 63.0955C167.764 65.4005 157.88 71.036 151.207 78.6956C144.566 86.3183 141.239 95.7519 144.539 105.924C144.795 106.716 145.182 107.601 145.675 108.494C145.62 106.825 145.758 105.197 146.055 103.802C148.661 91.5726 157.594 84.1633 168.101 80.5581C178.562 76.9688 190.794 77.0505 200.654 79.8689C206.422 81.5176 211.856 83.948 216.904 86.9979C222.561 90.4099 227.734 94.5998 232.348 99.3399C232.834 101.754 233.216 104.206 233.49 106.69C228.143 100.301 221.852 94.7369 214.797 90.4753C210.053 87.6145 204.963 85.3427 199.583 83.8048C190.453 81.1951 179.075 81.1336 169.467 84.4306C159.904 87.7116 152.306 94.2177 150.077 104.677C149.903 105.491 149.796 106.451 149.777 107.471C150.563 105.998 151.497 104.657 152.452 103.597C160.823 94.3094 172.264 92.359 183.166 94.4904C194.02 96.6125 204.572 102.799 211.702 110.17C215.882 114.491 219.379 119.325 222.23 124.504C225.467 130.376 227.872 136.691 229.496 143.206C228.691 145.56 227.784 147.866 226.781 150.121C225.361 141.824 222.687 133.769 218.673 126.473C215.99 121.606 212.709 117.078 208.806 113.043C202.204 106.218 192.382 100.476 182.412 98.5268C172.49 96.587 162.657 98.4222 155.497 106.366C154.94 106.984 154.367 107.762 153.84 108.635C155.257 107.753 156.737 107.058 158.093 106.618C169.987 102.76 180.87 106.792 189.246 114.089C197.585 121.353 203.63 131.987 206.119 141.935C207.58 147.774 208.192 153.715 208.069 159.631C207.935 166.347 206.855 173.031 204.997 179.495C203.133 181.111 201.197 182.646 199.195 184.095C202.117 176.198 203.831 167.881 204.004 159.553C204.115 153.992 203.539 148.426 202.175 142.976C199.87 133.764 194.235 123.88 186.575 117.207C178.952 110.566 169.519 107.239 159.346 110.538C158.554 110.795 157.669 111.182 156.777 111.675C158.445 111.62 160.074 111.758 161.469 112.055C173.698 114.661 181.107 123.594 184.712 134.101C188.302 144.562 188.22 156.793 185.402 166.654C183.749 172.435 181.311 177.881 178.251 182.939C174.799 188.656 170.552 193.877 165.747 198.526C163.357 198.98 160.932 199.332 158.475 199.578C164.895 194.224 170.486 187.919 174.767 180.844C177.641 176.086 179.923 170.98 181.466 165.583C184.075 156.453 184.137 145.075 180.84 135.466C177.559 125.904 171.053 118.306 160.593 116.077C159.779 115.903 158.819 115.796 157.8 115.777C159.273 116.563 160.614 117.497 161.673 118.451C170.961 126.823 172.912 138.263 170.78 149.166C168.658 160.02 162.472 170.572 155.101 177.702C150.788 181.873 145.965 185.365 140.799 188.212C135.045 191.389 128.863 193.765 122.486 195.39C120.167 194.587 117.895 193.685 115.674 192.689C123.801 191.245 131.685 188.592 138.837 184.651C143.689 181.971 148.204 178.698 152.227 174.806C159.053 168.204 164.795 158.382 166.744 148.412C168.684 138.49 166.848 128.657 158.905 121.497C158.286 120.939 157.509 120.367 156.635 119.84C157.518 121.257 158.212 122.737 158.652 124.093C162.51 135.987 158.479 146.87 151.182 155.246C143.917 163.585 133.284 169.63 123.335 172.119C117.515 173.575 111.593 174.188 105.695 174.07C99.2945 173.948 92.9227 172.965 86.7416 171.268C85.1363 169.432 83.6096 167.526 82.1668 165.554C89.7843 168.263 97.7729 169.845 105.772 170.005C111.315 170.111 116.863 169.534 122.295 168.175C131.506 165.87 141.39 160.235 148.063 152.575C154.704 144.952 158.031 135.519 154.732 125.346C154.475 124.554 154.088 123.669 153.595 122.777C153.651 124.445 153.513 126.074 153.215 127.468C150.609 139.698 141.677 147.107 131.169 150.712C120.708 154.302 108.477 154.22 98.6169 151.402C92.8315 149.748 87.3816 147.308 82.3205 144.245C76.9786 141.017 72.0692 137.096 67.6548 132.673C67.1775 130.303 66.8 127.897 66.5268 125.46C71.6958 131.464 77.7119 136.703 84.4201 140.763C89.1799 143.639 94.2875 145.922 99.6877 147.466C108.818 150.075 120.195 150.137 129.804 146.84C139.367 143.559 146.965 137.053 149.194 126.593C149.367 125.779 149.474 124.819 149.494 123.8C148.708 125.272 147.774 126.614 146.819 127.673C138.448 136.961 127.007 138.911 116.105 136.78C105.251 134.658 94.6988 128.472 87.5689 121.101C83.3988 116.79 79.9081 111.969 77.0616 106.804C74.0854 101.414 71.8114 95.6498 70.1995 89.7C70.9678 87.3675 71.8355 85.0802 72.7975 82.8431C74.283 90.5559 76.8672 98.0278 80.6194 104.836C83.2987 109.689 86.5719 114.204 90.4642 118.227C97.0663 125.053 106.889 130.794 116.859 132.744C126.78 134.683 136.614 132.848 143.774 124.905C144.331 124.286 144.904 123.509 145.431 122.635C144.014 123.518 142.534 124.212 141.177 124.652C129.283 128.51 118.4 124.479 110.025 117.182C101.686 109.917 95.6408 99.2836 93.1515 89.3352C91.6905 83.496 91.0788 77.5542 91.2014 71.6377C91.3229 65.5497 92.2221 59.4881 93.7737 53.5924C95.5983 51.9475 97.4953 50.3814 99.4595 48.8997C96.913 56.2794 95.4265 63.9946 95.2664 71.7199C95.1555 77.2803 95.7322 82.8456 97.0956 88.2945C99.4006 97.5064 105.036 107.39 112.696 114.063C120.318 120.704 129.752 124.031 139.925 120.732C140.716 120.475 141.601 120.088 142.494 119.595C140.826 119.651 139.197 119.512 137.802 119.215C125.573 116.609 118.163 107.677 114.558 97.1694C110.969 86.7084 111.051 74.477 113.869 64.6168C115.518 58.8473 117.949 53.4115 121 48.3622C124.186 43.0809 128.05 38.2219 132.407 33.8454C134.8 33.3353 137.232 32.9271 139.696 32.6257Z" fill="#FF8B52"/>
<circle cx="150" cy="116" r="70.4516" fill="#F4E9E3"/>
<mask id="mask0" mask-type="alpha" maskUnits="userSpaceOnUse" x="79" y="45" width="142" height="142">
<path fill-rule="evenodd" clip-rule="evenodd" d="M150 186.452C188.909 186.452 220.452 154.909 220.452 116C220.452 77.0907 188.909 45.5484 150 45.5484C111.091 45.5484 79.5484 77.0907 79.5484 116C79.5484 154.909 111.091 186.452 150 186.452ZM150 163.419C176.189 163.419 197.419 142.189 197.419 116C197.419 89.811 176.189 68.5807 150 68.5807C123.811 68.5807 102.581 89.811 102.581 116C102.581 142.189 123.811 163.419 150 163.419Z" fill="white"/>
</mask>
<g mask="url(#mask0)">
<path d="M168.523 48.8498C168.708 47.3647 166.751 45.8991 164.152 45.5762C161.553 45.2532 159.296 46.1954 159.112 47.6805C158.927 49.1656 160.885 50.6312 163.484 50.9542C166.082 51.2771 168.339 50.3349 168.523 48.8498Z" fill="white"/>
<path d="M149.03 47.8666C148.805 49.3461 150.722 50.8646 153.311 51.2582C155.9 51.6518 158.182 50.7715 158.406 49.2919C158.631 47.8124 156.715 46.294 154.126 45.9004C151.536 45.5068 149.255 46.3871 149.03 47.8666Z" fill="white"/>
<path d="M142.498 46.8324C144.776 45.5404 147.221 45.5482 147.959 46.8499C148.698 48.1516 147.45 50.2543 145.172 51.5463C142.894 52.8383 140.448 52.8305 139.71 51.5288C138.972 50.2271 140.22 48.1244 142.498 46.8324Z" fill="white"/>
<path d="M127.044 47.9352C129.456 46.9154 131.884 47.2061 132.467 48.5845C133.049 49.9629 131.566 51.907 129.154 52.9268C126.742 53.9466 124.314 53.6559 123.731 52.2775C123.149 50.8991 124.632 48.955 127.044 47.9352Z" fill="white"/>
<path d="M120.497 58.2763C118.058 59.23 115.638 58.8733 115.093 57.4795C114.549 56.0858 116.084 54.1828 118.523 53.2291C120.962 52.2753 123.381 52.6321 123.926 54.0258C124.471 55.4196 122.936 57.3226 120.497 58.2763Z" fill="white"/>
<path d="M113.658 57.1345C112.368 56.3764 110.246 57.5922 108.919 59.8501C107.592 62.108 107.563 64.5531 108.853 65.3112C110.143 66.0694 112.265 64.8536 113.592 62.5957C114.918 60.3377 114.948 57.8927 113.658 57.1345Z" fill="white"/>
<path d="M101.108 66.3831C99.914 65.4808 97.6661 66.443 96.087 68.5322C94.5079 70.6215 94.1956 73.0467 95.3895 73.949C96.5833 74.8514 98.8313 73.8892 100.41 71.7999C101.989 69.7107 102.302 67.2855 101.108 66.3831Z" fill="white"/>
<path d="M98.4587 76.1625C98.9883 73.5977 100.606 71.7638 102.071 72.0664C103.537 72.369 104.296 74.6935 103.766 77.2583C103.237 79.8231 101.619 81.657 100.154 81.3544C98.688 81.0518 97.9292 78.7274 98.4587 76.1625Z" fill="white"/>
<path d="M90.5099 82.773C91.6788 83.7075 93.9521 82.8069 95.5875 80.7615C97.2229 78.716 97.6012 76.3002 96.4323 75.3657C95.2635 74.4311 92.9902 75.3317 91.3547 77.3772C89.7193 79.4227 89.3411 81.8385 90.5099 82.773Z" fill="white"/>
<path d="M86.348 87.9132C86.3681 85.2943 87.5975 83.1807 89.094 83.1921C90.5904 83.2036 91.7873 85.3359 91.7672 87.9547C91.7472 90.5735 90.5178 92.6872 89.0213 92.6757C87.5248 92.6643 86.328 90.532 86.348 87.9132Z" fill="white"/>
<path d="M102.468 96.7626C102.285 94.1501 103.347 91.9475 104.84 91.8429C106.333 91.7383 107.691 93.7714 107.874 96.3839C108.057 98.9964 106.995 101.199 105.503 101.304C104.01 101.408 102.651 99.3751 102.468 96.7626Z" fill="white"/>
<path d="M79.5761 101.848C79.899 99.2493 81.3647 97.2921 82.8498 97.4766C84.3349 97.6611 85.277 99.9175 84.9541 102.516C84.6312 105.115 83.1655 107.073 81.6804 106.888C80.1953 106.704 79.2532 104.447 79.5761 101.848Z" fill="white"/>
<path d="M86.5257 101.917C85.1051 102.388 84.6214 104.784 85.4452 107.27C86.269 109.756 88.0884 111.39 89.509 110.919C90.9295 110.449 91.4133 108.052 90.5895 105.566C89.7656 103.08 87.9462 101.446 86.5257 101.917Z" fill="white"/>
<path d="M81.8666 116.97C83.3461 117.195 84.8645 115.278 85.2581 112.689C85.6517 110.1 84.7714 107.818 83.2919 107.593C81.8124 107.369 80.2939 109.285 79.9003 111.874C79.5067 114.463 80.3871 116.745 81.8666 116.97Z" fill="white"/>
<path d="M90.6238 101.523C89.6442 102.655 90.4552 104.962 92.4351 106.676C94.4151 108.39 96.8142 108.862 97.7938 107.731C98.7733 106.6 97.9623 104.293 95.9824 102.579C94.0024 100.864 91.6033 100.392 90.6238 101.523Z" fill="white"/>
<path d="M93.4469 117.971C94.9418 118.042 96.2539 115.978 96.3777 113.362C96.5014 110.746 95.3899 108.568 93.8951 108.498C92.4002 108.427 91.0881 110.49 90.9644 113.106C90.8406 115.722 91.9521 117.9 93.4469 117.971Z" fill="white"/>
<path d="M90.6445 116C90.6445 118.619 89.4314 120.742 87.9348 120.742C86.4383 120.742 85.2252 118.619 85.2252 116C85.2252 113.381 86.4383 111.258 87.9348 111.258C89.4314 111.258 90.6445 113.381 90.6445 116Z" fill="white"/>
<path d="M97.9122 98.13C96.5939 98.8384 96.5303 101.283 97.77 103.59C99.0096 105.897 101.083 107.192 102.401 106.484C103.72 105.776 103.783 103.331 102.544 101.024C101.304 98.7174 99.2304 97.4216 97.9122 98.13Z" fill="white"/>
<path d="M85.2304 92.1957C83.8536 92.7821 83.5693 95.2107 84.5956 97.6202C85.6218 100.03 87.5698 101.507 88.9467 100.921C90.3235 100.335 90.6077 97.906 89.5815 95.4966C88.5553 93.0871 86.6072 91.6092 85.2304 92.1957Z" fill="white"/>
<path d="M91.0448 96.8627C90.2453 94.3688 90.7524 91.9767 92.1775 91.5199C93.6026 91.063 95.4059 92.7143 96.2055 95.2082C97.005 97.7021 96.4979 100.094 95.0728 100.551C93.6477 101.008 91.8443 99.3565 91.0448 96.8627Z" fill="white"/>
<path d="M99.3014 117.002C100.789 117.168 102.229 115.192 102.519 112.589C102.808 109.986 101.837 107.742 100.35 107.576C98.8625 107.411 97.4221 109.387 97.1326 111.99C96.843 114.593 97.8141 116.837 99.3014 117.002Z" fill="white"/>
<path d="M101.34 92.1758C102.421 94.5612 102.192 96.9957 100.829 97.6133C99.4661 98.231 97.4848 96.7979 96.404 94.4124C95.3231 92.0269 95.552 89.5925 96.9151 88.9748C98.2782 88.3572 100.259 89.7903 101.34 92.1758Z" fill="white"/>
<path d="M104.809 79.1426C103.952 76.6681 104.403 74.2648 105.817 73.7748C107.231 73.2847 109.072 74.8934 109.93 77.3679C110.788 79.8424 110.337 82.2457 108.923 82.7357C107.509 83.2258 105.667 81.6171 104.809 79.1426Z" fill="white"/>
<path d="M122.969 72.4993C121.624 71.8434 119.603 73.22 118.455 75.574C117.307 77.928 117.467 80.368 118.812 81.0239C120.157 81.6797 122.178 80.3031 123.326 77.9491C124.474 75.5951 124.314 73.1552 122.969 72.4993Z" fill="white"/>
<path d="M104.881 86.9045C103.465 89.1082 101.297 90.239 100.038 89.4303C98.7789 88.6217 98.9054 86.1797 100.321 83.9761C101.736 81.7725 103.904 80.6417 105.163 81.4503C106.422 82.259 106.296 84.7009 104.881 86.9045Z" fill="white"/>
<path d="M93.879 89.0741C95.175 89.8223 97.2872 88.5903 98.5966 86.3223C99.9061 84.0542 99.917 81.609 98.6209 80.8608C97.3249 80.1125 95.2128 81.3446 93.9033 83.6126C92.5939 85.8806 92.583 88.3258 93.879 89.0741Z" fill="white"/>
<path d="M110.973 79.1373C111.053 76.5197 112.33 74.4346 113.826 74.4802C115.321 74.5259 116.469 76.6849 116.389 79.3026C116.31 81.9203 115.032 84.0053 113.536 83.9597C112.041 83.9141 110.893 81.755 110.973 79.1373Z" fill="white"/>
<path d="M102.548 67.3804C102.864 64.7806 104.324 62.8195 105.81 63C107.296 63.1806 108.244 65.4345 107.928 68.0343C107.612 70.634 106.151 72.5952 104.666 72.4146C103.18 72.234 102.232 69.9801 102.548 67.3804Z" fill="white"/>
<path d="M112.164 65.8883C110.702 65.5714 109.067 67.3895 108.512 69.949C107.957 72.5085 108.694 74.8403 110.156 75.1571C111.619 75.474 113.254 73.656 113.808 71.0965C114.363 68.537 113.627 66.2052 112.164 65.8883Z" fill="white"/>
<path d="M110.586 89.3052C109.033 91.4146 106.798 92.4056 105.593 91.5186C104.387 90.6317 104.668 88.2027 106.221 86.0933C107.773 83.984 110.008 82.993 111.213 83.8799C112.419 84.7669 112.138 87.1959 110.586 89.3052Z" fill="white"/>
<path d="M116.61 75.4913C118.099 75.638 119.515 73.6441 119.772 71.0378C120.028 68.4315 119.029 66.1998 117.54 66.0531C116.05 65.9064 114.635 67.9003 114.378 70.5066C114.122 73.1129 115.121 75.3446 116.61 75.4913Z" fill="white"/>
<path d="M130.459 53.988C129.341 52.9932 127.024 53.7727 125.283 55.7291C123.542 57.6855 123.037 60.078 124.154 61.0729C125.272 62.0677 127.59 61.2882 129.331 59.3318C131.072 57.3754 131.577 54.9829 130.459 53.988Z" fill="white"/>
<path d="M132.849 57.3404C131.379 57.0577 129.787 58.9135 129.293 61.4853C128.798 64.057 129.588 66.371 131.058 66.6536C132.528 66.9362 134.12 65.0805 134.614 62.5087C135.109 59.9369 134.319 57.623 132.849 57.3404Z" fill="white"/>
<path d="M142.894 65.2175C145.065 63.7528 147.504 63.5711 148.341 64.8117C149.178 66.0522 148.096 68.2453 145.925 69.71C143.754 71.1748 141.316 71.3565 140.479 70.1159C139.642 68.8754 140.723 66.6823 142.894 65.2175Z" fill="white"/>
<path d="M120.017 68.0091C120.703 69.339 123.146 69.4437 125.473 68.2429C127.8 67.0421 129.131 64.9905 128.445 63.6606C127.759 62.3306 125.316 62.226 122.988 63.4268C120.661 64.6276 119.33 66.6792 120.017 68.0091Z" fill="white"/>
<path d="M120.322 64.5967C118.054 65.9061 115.609 65.917 114.861 64.621C114.112 63.325 115.344 61.2128 117.613 59.9034C119.881 58.5939 122.326 58.583 123.074 59.8791C123.822 61.1751 122.59 63.2872 120.322 64.5967Z" fill="white"/>
<path d="M139.432 61.9556C138.159 61.1682 136.011 62.3352 134.633 64.5623C133.255 66.7894 133.169 69.2331 134.442 70.0205C135.714 70.8079 137.863 69.6409 139.241 67.4138C140.619 65.1868 140.705 62.7431 139.432 61.9556Z" fill="white"/>
<path d="M138.23 48.0057C137.034 47.1066 134.789 48.0747 133.215 50.1682C131.642 52.2616 131.336 54.6877 132.532 55.5868C133.728 56.486 135.974 55.5178 137.547 53.4244C139.121 51.3309 139.427 48.9049 138.23 48.0057Z" fill="white"/>
<path d="M137.096 55.3746C138.856 53.4353 141.181 52.6784 142.289 53.6842C143.397 54.6899 142.869 57.0773 141.109 59.0166C139.349 60.956 137.024 61.7128 135.916 60.7071C134.807 59.7014 135.336 57.314 137.096 55.3746Z" fill="white"/>
<path d="M123.783 72.5949C124.383 73.9657 126.814 74.2252 129.213 73.1745C131.612 72.1238 133.07 70.1608 132.47 68.79C131.869 67.4192 129.438 67.1597 127.039 68.2104C124.64 69.2611 123.182 71.2241 123.783 72.5949Z" fill="white"/>
<path d="M146.302 61.9473C144.777 64.0761 142.554 65.0952 141.338 64.2235C140.121 63.3518 140.372 60.9195 141.897 58.7907C143.423 56.6619 145.646 55.6429 146.862 56.5145C148.078 57.3862 147.828 59.8186 146.302 61.9473Z" fill="white"/>
<path d="M158.73 51.4453C161.216 50.6214 163.612 51.1052 164.083 52.5257C164.554 53.9463 162.92 55.7657 160.434 56.5895C157.948 57.4133 155.551 56.9296 155.081 55.509C154.61 54.0885 156.244 52.2691 158.73 51.4453Z" fill="white"/>
<path d="M159.324 58.4352C161.038 56.4553 163.345 55.6443 164.477 56.6238C165.608 57.6033 165.136 60.0025 163.421 61.9824C161.707 63.9624 159.4 64.7733 158.269 63.7938C157.138 62.8143 157.61 60.4151 159.324 58.4352Z" fill="white"/>
<path d="M174.157 70.84C174.052 69.3471 171.85 68.2853 169.237 68.4683C166.625 68.6513 164.592 70.0098 164.696 71.5027C164.801 72.9955 167.004 74.0574 169.616 73.8744C172.229 73.6914 174.262 72.3328 174.157 70.84Z" fill="white"/>
<path d="M152.638 62.3777C150.022 62.254 147.958 60.9418 148.029 59.447C148.1 57.9522 150.278 56.8407 152.894 56.9644C155.51 57.0882 157.573 58.4003 157.502 59.8951C157.432 61.39 155.254 62.5015 152.638 62.3777Z" fill="white"/>
<path d="M145.258 53.9349C145.258 55.4314 147.381 56.6446 150 56.6446C152.619 56.6446 154.742 55.4314 154.742 53.9349C154.742 52.4384 152.619 51.2252 150 51.2252C147.381 51.2252 145.258 52.4384 145.258 53.9349Z" fill="white"/>
<path d="M162.41 63.77C164.717 62.5303 167.162 62.594 167.87 63.9122C168.578 65.2305 167.282 67.3041 164.976 68.5438C162.669 69.7834 160.224 69.7198 159.516 68.4015C158.808 67.0833 160.103 65.0097 162.41 63.77Z" fill="white"/>
<path d="M182.808 55.094C182.819 53.5976 180.706 52.3682 178.087 52.3481C175.468 52.328 173.336 53.5249 173.324 55.0214C173.313 56.5178 175.426 57.7472 178.045 57.7673C180.664 57.7874 182.796 56.5905 182.808 55.094Z" fill="white"/>
<path d="M168.38 50.5956C170.789 49.5694 173.218 49.8536 173.804 51.2305C174.391 52.6073 172.913 54.5554 170.503 55.5816C168.094 56.6078 165.665 56.3236 165.079 54.9467C164.492 53.5699 165.97 51.6218 168.38 50.5956Z" fill="white"/>
<path d="M174.48 58.1775C174.023 56.7525 171.631 56.2454 169.137 57.0449C166.643 57.8444 164.992 59.6478 165.449 61.0728C165.906 62.4979 168.298 63.005 170.792 62.2055C173.286 61.406 174.937 59.6026 174.48 58.1775Z" fill="white"/>
<path d="M153.411 68.5188C150.808 68.2292 148.832 66.7888 148.998 65.3015C149.163 63.8141 151.407 62.8431 154.01 63.1326C156.613 63.4221 158.589 64.8626 158.423 66.3499C158.258 67.8373 156.014 68.8083 153.411 68.5188Z" fill="white"/>
<path d="M168.387 66.8292C169.004 68.1923 171.439 68.4212 173.824 67.3403C176.21 66.2595 177.643 64.2783 177.025 62.9151C176.407 61.552 173.973 61.3232 171.588 62.404C169.202 63.4849 167.769 65.4661 168.387 66.8292Z" fill="white"/>
<path d="M185.238 61.5876C183.193 59.9521 182.292 57.6788 183.227 56.51C184.161 55.3411 186.577 55.7194 188.623 57.3548C190.668 58.9902 191.569 61.2636 190.634 62.4324C189.7 63.6012 187.284 63.223 185.238 61.5876Z" fill="white"/>
<path d="M193.933 68.0713C194.236 66.6057 192.402 64.9883 189.837 64.4588C187.273 63.9293 184.948 64.6881 184.646 66.1537C184.343 67.6193 186.177 69.2367 188.742 69.7662C191.306 70.2957 193.631 69.5369 193.933 68.0713Z" fill="white"/>
<path d="M197.468 62.087C199.557 63.6662 200.519 65.9141 199.617 67.108C198.714 68.3018 196.289 67.9895 194.2 66.4104C192.111 64.8313 191.149 62.5834 192.051 61.3895C192.953 60.1956 195.378 60.5079 197.468 62.087Z" fill="white"/>
<path d="M192.225 71.817C191.735 70.403 189.332 69.9519 186.857 70.8095C184.383 71.6671 182.774 73.5086 183.264 74.9226C183.754 76.3366 186.157 76.7877 188.632 75.9301C191.106 75.0725 192.715 73.231 192.225 71.817Z" fill="white"/>
<path d="M190.426 84.455C192.78 85.6027 194.157 87.6236 193.501 88.9688C192.845 90.3139 190.405 90.4739 188.051 89.3262C185.697 88.1784 184.32 86.1575 184.976 84.8124C185.632 83.4672 188.072 83.3072 190.426 84.455Z" fill="white"/>
<path d="M176.57 66.0382C175.761 67.2974 176.892 69.4654 179.095 70.8806C181.299 72.2957 183.741 72.4222 184.55 71.163C185.358 69.9037 184.227 67.7357 182.024 66.3206C179.82 64.9054 177.378 64.779 176.57 66.0382Z" fill="white"/>
<path d="M179.678 64.5967C177.41 63.2872 176.178 61.1751 176.926 59.8791C177.674 58.583 180.119 58.5939 182.387 59.9034C184.655 61.2128 185.887 63.325 185.139 64.621C184.391 65.917 181.946 65.9061 179.678 64.5967Z" fill="white"/>
<path d="M191.52 79.8257C191.565 78.3299 189.48 77.0526 186.863 76.9727C184.245 76.8928 182.086 78.0407 182.04 79.5365C181.995 81.0323 184.08 82.3097 186.697 82.3895C189.315 82.4694 191.474 81.3215 191.52 79.8257Z" fill="white"/>
<path d="M206.15 74.9193C208.408 76.2461 209.624 78.3676 208.865 79.6578C208.107 80.9481 205.662 80.9185 203.404 79.5917C201.146 78.2649 199.931 76.1434 200.689 74.8531C201.447 73.5629 203.892 73.5925 206.15 74.9193Z" fill="white"/>
<path d="M203 71.8101C203.18 70.3246 201.219 68.8641 198.62 68.5481C196.02 68.2321 193.766 69.1802 193.585 70.6658C193.405 72.1514 195.366 73.6118 197.966 73.9278C200.565 74.2438 202.819 73.2957 203 71.8101Z" fill="white"/>
<path d="M196.051 74.512C198.61 75.0666 200.428 76.7018 200.112 78.1643C199.795 79.6269 197.463 80.363 194.903 79.8085C192.344 79.254 190.526 77.6188 190.843 76.1562C191.16 74.6936 193.491 73.9575 196.051 74.512Z" fill="white"/>
<path d="M174.481 71.5927C173.594 72.798 174.585 75.0334 176.695 76.5856C178.804 78.1377 181.233 78.4189 182.12 77.2135C183.007 76.0082 182.016 73.7728 179.907 72.2206C177.797 70.6684 175.368 70.3873 174.481 71.5927Z" fill="white"/>
<path d="M194.962 85.7716C192.356 85.5149 190.362 84.0995 190.509 82.6102C190.655 81.1209 192.887 80.1217 195.493 80.3784C198.1 80.635 200.094 82.0505 199.947 83.5398C199.8 85.0291 197.568 86.0283 194.962 85.7716Z" fill="white"/>
<path d="M208.52 81.0936C207.127 81.6385 206.77 84.0576 207.724 86.4967C208.677 88.9357 210.58 90.4712 211.974 89.9262C213.368 89.3812 213.725 86.9622 212.771 84.5231C211.817 82.084 209.914 80.5486 208.52 81.0936Z" fill="white"/>
<path d="M210.271 91.2827C212.227 93.0237 213.007 95.3413 212.012 96.4593C211.017 97.5772 208.625 97.0722 206.668 95.3312C204.712 93.5902 203.932 91.2725 204.927 90.1546C205.922 89.0366 208.314 89.5417 210.271 91.2827Z" fill="white"/>
<path d="M217.415 98.4667C218.794 97.8839 219.084 95.456 218.065 93.0439C217.045 90.6317 215.101 89.1486 213.722 89.7314C212.344 90.3141 212.053 92.742 213.073 95.1542C214.093 97.5664 216.037 99.0494 217.415 98.4667Z" fill="white"/>
<path d="M204.515 95.2926C207.086 95.7871 208.942 97.3794 208.66 98.849C208.377 100.319 206.063 101.109 203.491 100.614C200.919 100.12 199.064 98.5276 199.346 97.058C199.629 95.5884 201.943 94.798 204.515 95.2926Z" fill="white"/>
<path d="M201.188 114.341C202.429 113.504 202.247 111.065 200.782 108.894C199.318 106.723 197.125 105.642 195.884 106.479C194.643 107.316 194.825 109.754 196.29 111.925C197.755 114.096 199.948 115.178 201.188 114.341Z" fill="white"/>
<path d="M197.757 91.4732C196.556 89.1458 196.661 86.7028 197.991 86.0166C199.321 85.3304 201.372 86.6609 202.573 88.9883C203.774 91.3157 203.669 93.7586 202.339 94.4448C201.009 95.131 198.958 93.8005 197.757 91.4732Z" fill="white"/>
<path d="M201.379 80.8608C200.083 81.609 200.094 84.0542 201.403 86.3222C202.713 88.5903 204.825 89.8223 206.121 89.074C207.417 88.3258 207.406 85.8806 206.097 83.6126C204.787 81.3445 202.675 80.1125 201.379 80.8608Z" fill="white"/>
<path d="M201.438 100.633C203.665 102.011 204.832 104.159 204.044 105.432C203.257 106.705 200.813 106.619 198.586 105.241C196.359 103.863 195.192 101.714 195.979 100.442C196.767 99.1693 199.211 99.2547 201.438 100.633Z" fill="white"/>
<path d="M219.15 113.959C220.452 113.221 220.46 110.776 219.167 108.498C217.875 106.22 215.773 104.972 214.471 105.71C213.169 106.448 213.162 108.894 214.454 111.172C215.746 113.45 217.848 114.698 219.15 113.959Z" fill="white"/>
<path d="M215.832 99.2152C217.925 100.789 218.893 103.034 217.994 104.23C217.095 105.427 214.669 105.121 212.576 103.547C210.482 101.974 209.514 99.7284 210.413 98.5321C211.312 97.3358 213.738 97.6417 215.832 99.2152Z" fill="white"/>
<path d="M212.316 108.289C213.321 107.181 212.565 104.856 210.625 103.096C208.686 101.336 206.298 100.807 205.293 101.916C204.287 103.024 205.044 105.349 206.983 107.109C208.923 108.869 211.31 109.397 212.316 108.289Z" fill="white"/>
<path d="M192.825 95.2134C191.775 92.8146 192.034 90.3832 193.405 89.7828C194.776 89.1824 196.739 90.6403 197.79 93.0392C198.84 95.4381 198.581 97.8695 197.21 98.4699C195.839 99.0703 193.876 97.6123 192.825 95.2134Z" fill="white"/>
<path d="M201.776 107.338C200.905 108.554 201.924 110.777 204.053 112.303C206.181 113.828 208.614 114.078 209.485 112.862C210.357 111.646 209.338 109.423 207.209 107.897C205.08 106.372 202.648 106.121 201.776 107.338Z" fill="white"/>
<path d="M214.742 119.311C215.135 116.722 216.654 114.805 218.133 115.03C219.613 115.255 220.493 117.537 220.1 120.126C219.706 122.715 218.188 124.631 216.708 124.407C215.229 124.182 214.348 121.9 214.742 119.311Z" fill="white"/>
<path d="M213.474 130.083C214.895 129.612 215.379 127.216 214.555 124.73C213.731 122.244 211.911 120.61 210.491 121.081C209.07 121.552 208.587 123.948 209.41 126.434C210.234 128.92 212.054 130.554 213.474 130.083Z" fill="white"/>
<path d="M220.424 130.152C220.101 132.751 218.635 134.708 217.15 134.523C215.665 134.339 214.723 132.083 215.046 129.484C215.369 126.885 216.834 124.927 218.319 125.112C219.805 125.296 220.747 127.553 220.424 130.152Z" fill="white"/>
<path d="M209.376 130.477C210.356 129.345 209.545 127.038 207.565 125.324C205.585 123.61 203.186 123.138 202.206 124.269C201.227 125.4 202.038 127.707 204.018 129.421C205.997 131.136 208.397 131.608 209.376 130.477Z" fill="white"/>
<path d="M197.532 135.237C197.715 137.85 196.653 140.053 195.16 140.157C193.667 140.262 192.309 138.229 192.126 135.616C191.943 133.004 193.004 130.801 194.497 130.696C195.99 130.592 197.349 132.625 197.532 135.237Z" fill="white"/>
<path d="M206.553 114.029C205.058 113.958 203.746 116.022 203.622 118.638C203.498 121.254 204.61 123.432 206.105 123.502C207.6 123.573 208.912 121.51 209.036 118.894C209.159 116.278 208.048 114.1 206.553 114.029Z" fill="white"/>
<path d="M209.355 116C209.355 113.381 210.569 111.258 212.065 111.258C213.562 111.258 214.775 113.381 214.775 116C214.775 118.619 213.562 120.742 212.065 120.742C210.569 120.742 209.355 118.619 209.355 116Z" fill="white"/>
<path d="M202.088 133.87C203.406 133.162 203.47 130.717 202.23 128.41C200.99 126.103 198.917 124.808 197.598 125.516C196.28 126.224 196.216 128.669 197.456 130.976C198.696 133.283 200.769 134.578 202.088 133.87Z" fill="white"/>
<path d="M213.652 144.087C213.632 146.706 212.402 148.819 210.906 148.808C209.409 148.796 208.213 146.664 208.233 144.045C208.253 141.426 209.482 139.313 210.979 139.324C212.475 139.336 213.672 141.468 213.652 144.087Z" fill="white"/>
<path d="M214.77 139.804C216.146 139.218 216.431 136.789 215.404 134.38C214.378 131.97 212.43 130.493 211.053 131.079C209.676 131.665 209.392 134.094 210.418 136.503C211.445 138.913 213.393 140.391 214.77 139.804Z" fill="white"/>
<path d="M208.955 135.137C209.755 137.631 209.247 140.023 207.822 140.48C206.397 140.937 204.594 139.286 203.794 136.792C202.995 134.298 203.502 131.906 204.927 131.449C206.352 130.992 208.156 132.643 208.955 135.137Z" fill="white"/>
<path d="M200.699 114.998C199.211 114.832 197.771 116.808 197.481 119.411C197.192 122.014 198.163 124.258 199.65 124.424C201.137 124.589 202.578 122.613 202.867 120.01C203.157 117.407 202.186 115.163 200.699 114.998Z" fill="white"/>
<path d="M198.66 139.824C197.579 137.439 197.808 135.004 199.171 134.387C200.534 133.769 202.515 135.202 203.596 137.588C204.677 139.973 204.448 142.408 203.085 143.025C201.722 143.643 199.74 142.21 198.66 139.824Z" fill="white"/>
<path d="M209.49 149.227C208.321 148.292 206.048 149.193 204.412 151.238C202.777 153.284 202.399 155.7 203.568 156.634C204.736 157.569 207.01 156.668 208.645 154.623C210.281 152.577 210.659 150.161 209.49 149.227Z" fill="white"/>
<path d="M201.541 155.837C201.012 158.402 199.394 160.236 197.929 159.934C196.463 159.631 195.704 157.306 196.234 154.742C196.763 152.177 198.381 150.343 199.846 150.646C201.312 150.948 202.071 153.273 201.541 155.837Z" fill="white"/>
<path d="M198.892 165.617C200.086 166.519 202.334 165.557 203.913 163.468C205.492 161.378 205.804 158.953 204.61 158.051C203.417 157.149 201.169 158.111 199.59 160.2C198.01 162.289 197.698 164.714 198.892 165.617Z" fill="white"/>
<path d="M195.19 152.857C196.048 155.332 195.597 157.735 194.183 158.225C192.769 158.715 190.927 157.107 190.07 154.632C189.212 152.158 189.663 149.754 191.077 149.264C192.491 148.774 194.333 150.383 195.19 152.857Z" fill="white"/>
<path d="M177.031 159.501C178.376 160.157 180.397 158.78 181.545 156.426C182.693 154.072 182.533 151.632 181.188 150.976C179.842 150.32 177.822 151.697 176.674 154.051C175.526 156.405 175.686 158.845 177.031 159.501Z" fill="white"/>
<path d="M195.119 145.095C196.535 142.892 198.703 141.761 199.962 142.57C201.221 143.378 201.095 145.82 199.679 148.024C198.264 150.227 196.096 151.358 194.837 150.55C193.578 149.741 193.704 147.299 195.119 145.095Z" fill="white"/>
<path d="M206.121 142.926C204.825 142.178 202.713 143.41 201.403 145.678C200.094 147.946 200.083 150.391 201.379 151.139C202.675 151.887 204.787 150.655 206.097 148.387C207.406 146.119 207.417 143.674 206.121 142.926Z" fill="white"/>
<path d="M189.027 152.863C188.947 155.48 187.67 157.565 186.174 157.52C184.678 157.474 183.531 155.315 183.61 152.697C183.69 150.08 184.968 147.995 186.463 148.04C187.959 148.086 189.107 150.245 189.027 152.863Z" fill="white"/>
<path d="M186.342 174.865C187.632 175.624 189.754 174.408 191.081 172.15C192.408 169.892 192.437 167.447 191.147 166.689C189.857 165.931 187.735 167.146 186.408 169.404C185.082 171.662 185.052 174.107 186.342 174.865Z" fill="white"/>
<path d="M197.452 164.62C197.136 167.219 195.675 169.181 194.19 169C192.704 168.819 191.756 166.565 192.072 163.966C192.388 161.366 193.849 159.405 195.334 159.585C196.82 159.766 197.768 162.02 197.452 164.62Z" fill="white"/>
<path d="M187.836 166.112C189.298 166.429 190.933 164.611 191.488 162.051C192.043 159.492 191.306 157.16 189.844 156.843C188.381 156.526 186.746 158.344 186.192 160.904C185.637 163.463 186.373 165.795 187.836 166.112Z" fill="white"/>
<path d="M189.414 142.695C190.967 140.585 193.202 139.594 194.407 140.481C195.613 141.368 195.332 143.797 193.779 145.907C192.227 148.016 189.992 149.007 188.786 148.12C187.581 147.233 187.862 144.804 189.414 142.695Z" fill="white"/>
<path d="M183.39 156.509C181.9 156.362 180.485 158.356 180.228 160.962C179.972 163.568 180.971 165.8 182.46 165.947C183.95 166.094 185.365 164.1 185.622 161.493C185.878 158.887 184.879 156.655 183.39 156.509Z" fill="white"/>
<path d="M179.503 173.724C181.942 172.77 184.361 173.127 184.906 174.52C185.451 175.914 183.916 177.817 181.477 178.771C179.038 179.725 176.619 179.368 176.074 177.974C175.529 176.58 177.064 174.677 179.503 173.724Z" fill="white"/>
<path d="M169.541 178.012C170.659 179.007 172.976 178.227 174.717 176.271C176.458 174.314 176.963 171.922 175.845 170.927C174.727 169.932 172.41 170.712 170.669 172.668C168.928 174.625 168.423 177.017 169.541 178.012Z" fill="white"/>
<path d="M172.956 184.065C170.544 185.085 168.116 184.794 167.533 183.415C166.951 182.037 168.434 180.093 170.846 179.073C173.258 178.053 175.686 178.344 176.269 179.722C176.851 181.101 175.368 183.045 172.956 184.065Z" fill="white"/>
<path d="M167.151 174.66C168.621 174.942 170.213 173.086 170.707 170.515C171.202 167.943 170.412 165.629 168.942 165.346C167.472 165.064 165.88 166.919 165.386 169.491C164.891 172.063 165.681 174.377 167.151 174.66Z" fill="white"/>
<path d="M157.106 166.782C154.935 168.247 152.496 168.429 151.659 167.188C150.822 165.948 151.904 163.755 154.075 162.29C156.246 160.825 158.684 160.643 159.521 161.884C160.358 163.125 159.277 165.318 157.106 166.782Z" fill="white"/>
<path d="M179.983 163.991C179.297 162.661 176.854 162.556 174.527 163.757C172.199 164.958 170.869 167.009 171.555 168.339C172.241 169.669 174.684 169.774 177.012 168.573C179.339 167.372 180.67 165.321 179.983 163.991Z" fill="white"/>
<path d="M179.678 167.403C181.946 166.094 184.391 166.083 185.139 167.379C185.887 168.675 184.655 170.787 182.387 172.097C180.119 173.406 177.674 173.417 176.926 172.121C176.178 170.825 177.41 168.713 179.678 167.403Z" fill="white"/>
<path d="M160.568 170.044C161.841 170.832 163.989 169.665 165.367 167.438C166.745 165.211 166.831 162.767 165.558 161.979C164.286 161.192 162.137 162.359 160.759 164.586C159.381 166.813 159.295 169.257 160.568 170.044Z" fill="white"/>
<path d="M157.502 185.168C155.224 186.46 152.779 186.452 152.041 185.15C151.302 183.848 152.55 181.746 154.828 180.454C157.106 179.162 159.552 179.169 160.29 180.471C161.028 181.773 159.78 183.876 157.502 185.168Z" fill="white"/>
<path d="M161.77 183.994C162.966 184.893 165.211 183.925 166.785 181.832C168.358 179.738 168.664 177.312 167.468 176.413C166.272 175.514 164.026 176.482 162.453 178.576C160.879 180.669 160.573 183.095 161.77 183.994Z" fill="white"/>
<path d="M162.904 176.625C161.144 178.565 158.819 179.322 157.711 178.316C156.603 177.31 157.131 174.923 158.891 172.983C160.651 171.044 162.976 170.287 164.084 171.293C165.192 172.299 164.664 174.686 162.904 176.625Z" fill="white"/>
<path d="M176.217 159.405C175.617 158.034 173.185 157.775 170.786 158.826C168.388 159.876 166.93 161.839 167.53 163.21C168.13 164.581 170.562 164.84 172.961 163.79C175.36 162.739 176.818 160.776 176.217 159.405Z" fill="white"/>
<path d="M153.697 170.053C155.223 167.924 157.446 166.905 158.662 167.776C159.878 168.648 159.628 171.08 158.103 173.209C156.577 175.338 154.354 176.357 153.138 175.485C151.921 174.614 152.172 172.181 153.697 170.053Z" fill="white"/>
<path d="M150.97 184.133C151.194 182.654 149.278 181.135 146.689 180.742C144.1 180.348 141.818 181.229 141.593 182.708C141.369 184.188 143.285 185.706 145.874 186.1C148.463 186.493 150.745 185.613 150.97 184.133Z" fill="white"/>
<path d="M141.27 180.555C138.784 181.379 136.388 180.895 135.917 179.474C135.446 178.054 137.08 176.234 139.566 175.41C142.052 174.587 144.448 175.07 144.919 176.491C145.39 177.911 143.756 179.731 141.27 180.555Z" fill="white"/>
<path d="M131.477 183.15C131.292 184.635 133.249 186.101 135.848 186.424C138.447 186.747 140.703 185.805 140.888 184.319C141.073 182.834 139.115 181.369 136.516 181.046C133.917 180.723 131.661 181.665 131.477 183.15Z" fill="white"/>
<path d="M140.676 173.565C138.962 175.545 136.655 176.356 135.523 175.376C134.392 174.397 134.864 171.997 136.579 170.018C138.293 168.038 140.6 167.227 141.731 168.206C142.862 169.186 142.39 171.585 140.676 173.565Z" fill="white"/>
<path d="M125.843 161.16C125.947 162.653 128.15 163.715 130.763 163.532C133.375 163.349 135.408 161.99 135.304 160.497C135.199 159.004 132.996 157.943 130.384 158.126C127.771 158.309 125.738 159.667 125.843 161.16Z" fill="white"/>
<path d="M147.362 169.622C149.978 169.746 152.042 171.058 151.971 172.553C151.9 174.048 149.722 175.159 147.106 175.035C144.49 174.912 142.427 173.6 142.498 172.105C142.568 170.61 144.746 169.498 147.362 169.622Z" fill="white"/>
<path d="M154.742 178.065C154.742 176.569 152.619 175.355 150 175.355C147.381 175.355 145.258 176.569 145.258 178.065C145.258 179.562 147.381 180.775 150 180.775C152.619 180.775 154.742 179.562 154.742 178.065Z" fill="white"/>
<path d="M137.59 168.23C135.283 169.47 132.838 169.406 132.13 168.088C131.422 166.769 132.717 164.696 135.024 163.456C137.331 162.216 139.776 162.28 140.484 163.598C141.192 164.917 139.897 166.99 137.59 168.23Z" fill="white"/>
<path d="M117.192 176.906C117.181 178.402 119.294 179.632 121.913 179.652C124.532 179.672 126.664 178.475 126.676 176.979C126.687 175.482 124.573 174.253 121.955 174.233C119.336 174.213 117.204 175.409 117.192 176.906Z" fill="white"/>
<path d="M131.62 181.404C129.211 182.431 126.782 182.146 126.196 180.769C125.609 179.393 127.087 177.445 129.497 176.418C131.906 175.392 134.335 175.676 134.921 177.053C135.507 178.43 134.03 180.378 131.62 181.404Z" fill="white"/>
<path d="M125.52 173.822C125.977 175.247 128.369 175.755 130.863 174.955C133.356 174.156 135.008 172.352 134.551 170.927C134.094 169.502 131.702 168.995 129.208 169.794C126.714 170.594 125.063 172.397 125.52 173.822Z" fill="white"/>
<path d="M146.589 163.481C149.192 163.771 151.168 165.211 151.002 166.699C150.837 168.186 148.593 169.157 145.99 168.867C143.387 168.578 141.411 167.137 141.576 165.65C141.742 164.163 143.986 163.192 146.589 163.481Z" fill="white"/>
<path d="M131.613 165.171C130.996 163.808 128.561 163.579 126.176 164.66C123.79 165.74 122.357 167.722 122.975 169.085C123.592 170.448 126.027 170.677 128.412 169.596C130.798 168.515 132.231 166.534 131.613 165.171Z" fill="white"/>
<path d="M114.761 170.412C116.807 172.048 117.707 174.321 116.773 175.49C115.838 176.659 113.423 176.281 111.377 174.645C109.332 173.01 108.431 170.736 109.366 169.568C110.3 168.399 112.716 168.777 114.761 170.412Z" fill="white"/>
<path d="M106.066 163.929C105.764 165.394 107.598 167.012 110.162 167.541C112.727 168.071 115.052 167.312 115.354 165.846C115.657 164.381 113.823 162.763 111.258 162.234C108.693 161.704 106.369 162.463 106.066 163.929Z" fill="white"/>
<path d="M102.532 169.913C100.443 168.334 99.4807 166.086 100.383 164.892C101.285 163.698 103.711 164.01 105.8 165.59C107.889 167.169 108.851 169.417 107.949 170.611C107.047 171.804 104.621 171.492 102.532 169.913Z" fill="white"/>
<path d="M107.775 160.183C108.265 161.597 110.668 162.048 113.143 161.191C115.617 160.333 117.226 158.491 116.736 157.077C116.246 155.663 113.842 155.212 111.368 156.07C108.893 156.928 107.285 158.769 107.775 160.183Z" fill="white"/>
<path d="M109.574 147.545C107.22 146.397 105.843 144.376 106.499 143.031C107.155 141.686 109.595 141.526 111.949 142.674C114.303 143.822 115.68 145.842 115.024 147.188C114.368 148.533 111.928 148.693 109.574 147.545Z" fill="white"/>
<path d="M123.43 165.962C124.239 164.703 123.108 162.535 120.904 161.119C118.701 159.704 116.259 159.578 115.45 160.837C114.642 162.096 115.772 164.264 117.976 165.679C120.18 167.095 122.622 167.221 123.43 165.962Z" fill="white"/>
<path d="M120.322 167.403C122.59 168.713 123.822 170.825 123.074 172.121C122.326 173.417 119.881 173.406 117.613 172.097C115.345 170.787 114.112 168.675 114.861 167.379C115.609 166.083 118.054 166.094 120.322 167.403Z" fill="white"/>
<path d="M108.48 152.174C108.435 153.67 110.52 154.947 113.137 155.027C115.755 155.107 117.914 153.959 117.96 152.464C118.005 150.968 115.92 149.69 113.303 149.61C110.685 149.531 108.526 150.678 108.48 152.174Z" fill="white"/>
<path d="M93.8501 157.081C91.5921 155.754 90.3763 153.632 91.1345 152.342C91.8927 151.052 94.3377 151.082 96.5956 152.408C98.8535 153.735 100.069 155.857 99.3112 157.147C98.553 158.437 96.108 158.408 93.8501 157.081Z" fill="white"/>
<path d="M97 160.19C96.8194 161.675 98.7805 163.136 101.38 163.452C103.98 163.768 106.234 162.82 106.415 161.334C106.595 159.849 104.634 158.388 102.034 158.072C99.4344 157.756 97.1805 158.704 97 160.19Z" fill="white"/>
<path d="M103.949 157.488C101.389 156.933 99.5714 155.298 99.8883 153.836C100.205 152.373 102.537 151.637 105.096 152.191C107.656 152.746 109.474 154.381 109.157 155.844C108.84 157.306 106.508 158.042 103.949 157.488Z" fill="white"/>
<path d="M125.519 160.407C126.406 159.202 125.415 156.967 123.305 155.414C121.196 153.862 118.767 153.581 117.88 154.786C116.993 155.992 117.984 158.227 120.093 159.779C122.203 161.332 124.632 161.613 125.519 160.407Z" fill="white"/>
<path d="M105.038 146.228C107.644 146.485 109.638 147.9 109.491 149.39C109.345 150.879 107.113 151.878 104.507 151.622C101.9 151.365 99.9064 149.95 100.053 148.46C100.2 146.971 102.431 145.972 105.038 146.228Z" fill="white"/>
<path d="M91.4795 150.906C92.8732 150.361 93.23 147.942 92.2762 145.503C91.3225 143.064 89.4195 141.529 88.0258 142.074C86.632 142.619 86.2753 145.038 87.229 147.477C88.1827 149.916 90.0857 151.451 91.4795 150.906Z" fill="white"/>
<path d="M89.7291 140.717C87.7726 138.976 86.9931 136.659 87.988 135.541C88.9828 134.423 91.3753 134.928 93.3317 136.669C95.2882 138.41 96.0677 140.727 95.0728 141.845C94.078 142.963 91.6855 142.458 89.7291 140.717Z" fill="white"/>
<path d="M82.5844 133.533C81.206 134.116 80.9153 136.544 81.9352 138.956C82.955 141.368 84.8991 142.851 86.2775 142.269C87.6559 141.686 87.9466 139.258 86.9267 136.846C85.9069 134.434 83.9628 132.951 82.5844 133.533Z" fill="white"/>
<path d="M95.4852 136.707C92.9134 136.213 91.0577 134.621 91.3403 133.151C91.6229 131.681 93.9368 130.891 96.5086 131.386C99.0804 131.88 100.936 133.472 100.654 134.942C100.371 136.412 98.057 137.202 95.4852 136.707Z" fill="white"/>
<path d="M98.8116 117.659C97.571 118.496 97.7528 120.935 99.2175 123.106C100.682 125.277 102.875 126.358 104.116 125.521C105.356 124.684 105.175 122.246 103.71 120.075C102.245 117.904 100.052 116.822 98.8116 117.659Z" fill="white"/>
<path d="M102.243 140.527C103.444 142.854 103.339 145.297 102.009 145.983C100.679 146.67 98.6275 145.339 97.4267 143.012C96.2259 140.684 96.3306 138.241 97.6605 137.555C98.9904 136.869 101.042 138.2 102.243 140.527Z" fill="white"/>
<path d="M98.6209 151.139C99.917 150.391 99.9061 147.946 98.5966 145.678C97.2872 143.41 95.175 142.178 93.879 142.926C92.583 143.674 92.5939 146.119 93.9033 148.387C95.2128 150.655 97.3249 151.887 98.6209 151.139Z" fill="white"/>
<path d="M98.5622 131.367C96.3352 129.989 95.1682 127.841 95.9556 126.568C96.743 125.295 99.1867 125.381 101.414 126.759C103.641 128.137 104.808 130.286 104.02 131.558C103.233 132.831 100.789 132.745 98.5622 131.367Z" fill="white"/>
<path d="M80.8499 118.041C79.5481 118.779 79.5403 121.224 80.8323 123.502C82.1244 125.78 84.227 127.028 85.5287 126.29C86.8304 125.552 86.8383 123.106 85.5463 120.828C84.2542 118.55 82.1516 117.302 80.8499 118.041Z" fill="white"/>
<path d="M84.1681 132.785C82.0747 131.211 81.1065 128.966 82.0057 127.77C82.9048 126.573 85.3308 126.879 87.4243 128.453C89.5178 130.026 90.4859 132.272 89.5868 133.468C88.6876 134.664 86.2616 134.358 84.1681 132.785Z" fill="white"/>
<path d="M87.6841 123.711C86.6784 124.819 87.4352 127.144 89.3746 128.904C91.3139 130.664 93.7014 131.193 94.7071 130.084C95.7128 128.976 94.9559 126.651 93.0166 124.891C91.0773 123.131 88.6898 122.603 87.6841 123.711Z" fill="white"/>
<path d="M107.174 136.787C108.225 139.185 107.966 141.617 106.595 142.217C105.224 142.818 103.261 141.36 102.21 138.961C101.16 136.562 101.419 134.13 102.79 133.53C104.161 132.93 106.124 134.388 107.174 136.787Z" fill="white"/>
<path d="M98.2234 124.662C99.0951 123.446 98.0761 121.223 95.9473 119.697C93.8185 118.172 91.3862 117.922 90.5145 119.138C89.6428 120.354 90.6619 122.577 92.7906 124.103C94.9194 125.628 97.3518 125.879 98.2234 124.662Z" fill="white"/>
<path d="M168.523 48.8498C168.708 47.3647 166.751 45.8991 164.152 45.5762C161.553 45.2532 159.296 46.1954 159.112 47.6805C158.927 49.1656 160.885 50.6312 163.484 50.9542C166.082 51.2771 168.339 50.3349 168.523 48.8498Z" stroke="#F4E2D8" stroke-width="0.5"/>
<path d="M149.03 47.8666C148.805 49.3461 150.722 50.8646 153.311 51.2582C155.9 51.6518 158.182 50.7715 158.406 49.2919C158.631 47.8124 156.715 46.294 154.126 45.9004C151.536 45.5068 149.255 46.3871 149.03 47.8666Z" stroke="#F4E2D8" stroke-width="0.5"/>
<path d="M142.498 46.8324C144.776 45.5404 147.221 45.5482 147.959 46.8499C148.698 48.1516 147.45 50.2543 145.172 51.5463C142.894 52.8383 140.448 52.8305 139.71 51.5288C138.972 50.2271 140.22 48.1244 142.498 46.8324Z" stroke="#F4E2D8" stroke-width="0.5"/>
<path d="M127.044 47.9352C129.456 46.9154 131.884 47.2061 132.467 48.5845C133.049 49.9629 131.566 51.907 129.154 52.9268C126.742 53.9466 124.314 53.6559 123.731 52.2775C123.149 50.8991 124.632 48.955 127.044 47.9352Z" stroke="#F4E2D8" stroke-width="0.5"/>
<path d="M120.497 58.2763C118.058 59.23 115.638 58.8733 115.093 57.4795C114.549 56.0858 116.084 54.1828 118.523 53.2291C120.962 52.2753 123.381 52.6321 123.926 54.0258C124.471 55.4196 122.936 57.3226 120.497 58.2763Z" stroke="#F4E2D8" stroke-width="0.5"/>
<path d="M113.658 57.1345C112.368 56.3764 110.246 57.5922 108.919 59.8501C107.592 62.108 107.563 64.5531 108.853 65.3112C110.143 66.0694 112.265 64.8536 113.592 62.5957C114.918 60.3377 114.948 57.8927 113.658 57.1345Z" stroke="#F4E2D8" stroke-width="0.5"/>
<path d="M101.108 66.3831C99.914 65.4808 97.6661 66.443 96.087 68.5322C94.5079 70.6215 94.1956 73.0467 95.3895 73.949C96.5833 74.8514 98.8313 73.8892 100.41 71.7999C101.989 69.7107 102.302 67.2855 101.108 66.3831Z" stroke="#F4E2D8" stroke-width="0.5"/>
<path d="M98.4587 76.1625C98.9883 73.5977 100.606 71.7638 102.071 72.0664C103.537 72.369 104.296 74.6935 103.766 77.2583C103.237 79.8231 101.619 81.657 100.154 81.3544C98.688 81.0518 97.9292 78.7274 98.4587 76.1625Z" stroke="#F4E2D8" stroke-width="0.5"/>
<path d="M90.5099 82.773C91.6788 83.7075 93.9521 82.8069 95.5875 80.7615C97.2229 78.716 97.6012 76.3002 96.4323 75.3657C95.2635 74.4311 92.9902 75.3317 91.3547 77.3772C89.7193 79.4227 89.3411 81.8385 90.5099 82.773Z" stroke="#F4E2D8" stroke-width="0.5"/>
<path d="M86.348 87.9132C86.3681 85.2943 87.5975 83.1807 89.094 83.1921C90.5904 83.2036 91.7873 85.3359 91.7672 87.9547C91.7472 90.5735 90.5178 92.6872 89.0213 92.6757C87.5248 92.6643 86.328 90.532 86.348 87.9132Z" stroke="#F4E2D8" stroke-width="0.5"/>
<path d="M102.468 96.7626C102.285 94.1501 103.347 91.9475 104.84 91.8429C106.333 91.7383 107.691 93.7714 107.874 96.3839C108.057 98.9964 106.995 101.199 105.503 101.304C104.01 101.408 102.651 99.3751 102.468 96.7626Z" stroke="#F4E2D8" stroke-width="0.5"/>
<path d="M79.5761 101.848C79.899 99.2493 81.3647 97.2921 82.8498 97.4766C84.3349 97.6611 85.277 99.9175 84.9541 102.516C84.6312 105.115 83.1655 107.073 81.6804 106.888C80.1953 106.704 79.2532 104.447 79.5761 101.848Z" stroke="#F4E2D8" stroke-width="0.5"/>
<path d="M86.5257 101.917C85.1051 102.388 84.6214 104.784 85.4452 107.27C86.269 109.756 88.0884 111.39 89.509 110.919C90.9295 110.449 91.4133 108.052 90.5895 105.566C89.7656 103.08 87.9462 101.446 86.5257 101.917Z" stroke="#F4E2D8" stroke-width="0.5"/>
<path d="M81.8666 116.97C83.3461 117.195 84.8645 115.278 85.2581 112.689C85.6517 110.1 84.7714 107.818 83.2919 107.593C81.8124 107.369 80.2939 109.285 79.9003 111.874C79.5067 114.463 80.3871 116.745 81.8666 116.97Z" stroke="#F4E2D8" stroke-width="0.5"/>
<path d="M90.6238 101.523C89.6442 102.655 90.4552 104.962 92.4351 106.676C94.4151 108.39 96.8142 108.862 97.7938 107.731C98.7733 106.6 97.9623 104.293 95.9824 102.579C94.0024 100.864 91.6033 100.392 90.6238 101.523Z" stroke="#F4E2D8" stroke-width="0.5"/>
<path d="M93.4469 117.971C94.9418 118.042 96.2539 115.978 96.3777 113.362C96.5014 110.746 95.3899 108.568 93.8951 108.498C92.4002 108.427 91.0881 110.49 90.9644 113.106C90.8406 115.722 91.9521 117.9 93.4469 117.971Z" stroke="#F4E2D8" stroke-width="0.5"/>
<path d="M90.6445 116C90.6445 118.619 89.4314 120.742 87.9348 120.742C86.4383 120.742 85.2252 118.619 85.2252 116C85.2252 113.381 86.4383 111.258 87.9348 111.258C89.4314 111.258 90.6445 113.381 90.6445 116Z" stroke="#F4E2D8" stroke-width="0.5"/>
<path d="M97.9122 98.13C96.5939 98.8384 96.5303 101.283 97.77 103.59C99.0096 105.897 101.083 107.192 102.401 106.484C103.72 105.776 103.783 103.331 102.544 101.024C101.304 98.7174 99.2304 97.4216 97.9122 98.13Z" stroke="#F4E2D8" stroke-width="0.5"/>
<path d="M85.2304 92.1957C83.8536 92.7821 83.5693 95.2107 84.5956 97.6202C85.6218 100.03 87.5698 101.507 88.9467 100.921C90.3235 100.335 90.6077 97.906 89.5815 95.4966C88.5553 93.0871 86.6072 91.6092 85.2304 92.1957Z" stroke="#F4E2D8" stroke-width="0.5"/>
<path d="M91.0448 96.8627C90.2453 94.3688 90.7524 91.9767 92.1775 91.5199C93.6026 91.063 95.4059 92.7143 96.2055 95.2082C97.005 97.7021 96.4979 100.094 95.0728 100.551C93.6477 101.008 91.8443 99.3565 91.0448 96.8627Z" stroke="#F4E2D8" stroke-width="0.5"/>
<path d="M99.3014 117.002C100.789 117.168 102.229 115.192 102.519 112.589C102.808 109.986 101.837 107.742 100.35 107.576C98.8625 107.411 97.4221 109.387 97.1326 111.99C96.843 114.593 97.8141 116.837 99.3014 117.002Z" stroke="#F4E2D8" stroke-width="0.5"/>
<path d="M101.34 92.1758C102.421 94.5612 102.192 96.9957 100.829 97.6133C99.4661 98.231 97.4848 96.7979 96.404 94.4124C95.3231 92.0269 95.552 89.5925 96.9151 88.9748C98.2782 88.3572 100.259 89.7903 101.34 92.1758Z" stroke="#F4E2D8" stroke-width="0.5"/>
<path d="M104.809 79.1426C103.952 76.6681 104.403 74.2648 105.817 73.7748C107.231 73.2847 109.072 74.8934 109.93 77.3679C110.788 79.8424 110.337 82.2457 108.923 82.7357C107.509 83.2258 105.667 81.6171 104.809 79.1426Z" stroke="#F4E2D8" stroke-width="0.5"/>
<path d="M122.969 72.4993C121.624 71.8434 119.603 73.22 118.455 75.574C117.307 77.928 117.467 80.368 118.812 81.0239C120.157 81.6797 122.178 80.3031 123.326 77.9491C124.474 75.5951 124.314 73.1552 122.969 72.4993Z" stroke="#F4E2D8" stroke-width="0.5"/>
<path d="M104.881 86.9045C103.465 89.1082 101.297 90.239 100.038 89.4303C98.7789 88.6217 98.9054 86.1797 100.321 83.9761C101.736 81.7725 103.904 80.6417 105.163 81.4503C106.422 82.259 106.296 84.7009 104.881 86.9045Z" stroke="#F4E2D8" stroke-width="0.5"/>
<path d="M93.879 89.0741C95.175 89.8223 97.2872 88.5903 98.5966 86.3223C99.9061 84.0542 99.917 81.609 98.6209 80.8608C97.3249 80.1125 95.2128 81.3446 93.9033 83.6126C92.5939 85.8806 92.583 88.3258 93.879 89.0741Z" stroke="#F4E2D8" stroke-width="0.5"/>
<path d="M110.973 79.1373C111.053 76.5197 112.33 74.4346 113.826 74.4802C115.321 74.5259 116.469 76.6849 116.389 79.3026C116.31 81.9203 115.032 84.0053 113.536 83.9597C112.041 83.9141 110.893 81.755 110.973 79.1373Z" stroke="#F4E2D8" stroke-width="0.5"/>
<path d="M102.548 67.3804C102.864 64.7806 104.324 62.8195 105.81 63C107.296 63.1806 108.244 65.4345 107.928 68.0343C107.612 70.634 106.151 72.5952 104.666 72.4146C103.18 72.234 102.232 69.9801 102.548 67.3804Z" stroke="#F4E2D8" stroke-width="0.5"/>
<path d="M112.164 65.8883C110.702 65.5714 109.067 67.3895 108.512 69.949C107.957 72.5085 108.694 74.8403 110.156 75.1571C111.619 75.474 113.254 73.656 113.808 71.0965C114.363 68.537 113.627 66.2052 112.164 65.8883Z" stroke="#F4E2D8" stroke-width="0.5"/>
<path d="M110.586 89.3052C109.033 91.4146 106.798 92.4056 105.593 91.5186C104.387 90.6317 104.668 88.2027 106.221 86.0933C107.773 83.984 110.008 82.993 111.213 83.8799C112.419 84.7669 112.138 87.1959 110.586 89.3052Z" stroke="#F4E2D8" stroke-width="0.5"/>
<path d="M116.61 75.4913C118.099 75.638 119.515 73.6441 119.772 71.0378C120.028 68.4315 119.029 66.1998 117.54 66.0531C116.05 65.9064 114.635 67.9003 114.378 70.5066C114.122 73.1129 115.121 75.3446 116.61 75.4913Z" stroke="#F4E2D8" stroke-width="0.5"/>
<path d="M130.459 53.988C129.341 52.9932 127.024 53.7727 125.283 55.7291C123.542 57.6855 123.037 60.078 124.154 61.0729C125.272 62.0677 127.59 61.2882 129.331 59.3318C131.072 57.3754 131.577 54.9829 130.459 53.988Z" stroke="#F4E2D8" stroke-width="0.5"/>
<path d="M132.849 57.3404C131.379 57.0577 129.787 58.9135 129.293 61.4853C128.798 64.057 129.588 66.371 131.058 66.6536C132.528 66.9362 134.12 65.0805 134.614 62.5087C135.109 59.9369 134.319 57.623 132.849 57.3404Z" stroke="#F4E2D8" stroke-width="0.5"/>
<path d="M142.894 65.2175C145.065 63.7528 147.504 63.5711 148.341 64.8117C149.178 66.0522 148.096 68.2453 145.925 69.71C143.754 71.1748 141.316 71.3565 140.479 70.1159C139.642 68.8754 140.723 66.6823 142.894 65.2175Z" stroke="#F4E2D8" stroke-width="0.5"/>
<path d="M120.017 68.0091C120.703 69.339 123.146 69.4437 125.473 68.2429C127.8 67.0421 129.131 64.9905 128.445 63.6606C127.759 62.3306 125.316 62.226 122.988 63.4268C120.661 64.6276 119.33 66.6792 120.017 68.0091Z" stroke="#F4E2D8" stroke-width="0.5"/>
<path d="M120.322 64.5967C118.054 65.9061 115.609 65.917 114.861 64.621C114.112 63.325 115.344 61.2128 117.613 59.9034C119.881 58.5939 122.326 58.583 123.074 59.8791C123.822 61.1751 122.59 63.2872 120.322 64.5967Z" stroke="#F4E2D8" stroke-width="0.5"/>
<path d="M139.432 61.9556C138.159 61.1682 136.011 62.3352 134.633 64.5623C133.255 66.7894 133.169 69.2331 134.442 70.0205C135.714 70.8079 137.863 69.6409 139.241 67.4138C140.619 65.1868 140.705 62.7431 139.432 61.9556Z" stroke="#F4E2D8" stroke-width="0.5"/>
<path d="M138.23 48.0057C137.034 47.1066 134.789 48.0747 133.215 50.1682C131.642 52.2616 131.336 54.6877 132.532 55.5868C133.728 56.486 135.974 55.5178 137.547 53.4244C139.121 51.3309 139.427 48.9049 138.23 48.0057Z" stroke="#F4E2D8" stroke-width="0.5"/>
<path d="M137.096 55.3746C138.856 53.4353 141.181 52.6784 142.289 53.6842C143.397 54.6899 142.869 57.0773 141.109 59.0166C139.349 60.956 137.024 61.7128 135.916 60.7071C134.807 59.7014 135.336 57.314 137.096 55.3746Z" stroke="#F4E2D8" stroke-width="0.5"/>
<path d="M123.783 72.5949C124.383 73.9657 126.814 74.2252 129.213 73.1745C131.612 72.1238 133.07 70.1608 132.47 68.79C131.869 67.4192 129.438 67.1597 127.039 68.2104C124.64 69.2611 123.182 71.2241 123.783 72.5949Z" stroke="#F4E2D8" stroke-width="0.5"/>
<path d="M146.302 61.9473C144.777 64.0761 142.554 65.0952 141.338 64.2235C140.121 63.3518 140.372 60.9195 141.897 58.7907C143.423 56.6619 145.646 55.6429 146.862 56.5145C148.078 57.3862 147.828 59.8186 146.302 61.9473Z" stroke="#F4E2D8" stroke-width="0.5"/>
<path d="M158.73 51.4453C161.216 50.6214 163.612 51.1052 164.083 52.5257C164.554 53.9463 162.92 55.7657 160.434 56.5895C157.948 57.4133 155.551 56.9296 155.081 55.509C154.61 54.0885 156.244 52.2691 158.73 51.4453Z" stroke="#F4E2D8" stroke-width="0.5"/>
<path d="M159.324 58.4352C161.038 56.4553 163.345 55.6443 164.477 56.6238C165.608 57.6033 165.136 60.0025 163.421 61.9824C161.707 63.9624 159.4 64.7733 158.269 63.7938C157.138 62.8143 157.61 60.4151 159.324 58.4352Z" stroke="#F4E2D8" stroke-width="0.5"/>
<path d="M174.157 70.84C174.052 69.3471 171.85 68.2853 169.237 68.4683C166.625 68.6513 164.592 70.0098 164.696 71.5027C164.801 72.9955 167.004 74.0574 169.616 73.8744C172.229 73.6914 174.262 72.3328 174.157 70.84Z" stroke="#F4E2D8" stroke-width="0.5"/>
<path d="M152.638 62.3777C150.022 62.254 147.958 60.9418 148.029 59.447C148.1 57.9522 150.278 56.8407 152.894 56.9644C155.51 57.0882 157.573 58.4003 157.502 59.8951C157.432 61.39 155.254 62.5015 152.638 62.3777Z" stroke="#F4E2D8" stroke-width="0.5"/>
<path d="M145.258 53.9349C145.258 55.4314 147.381 56.6446 150 56.6446C152.619 56.6446 154.742 55.4314 154.742 53.9349C154.742 52.4384 152.619 51.2252 150 51.2252C147.381 51.2252 145.258 52.4384 145.258 53.9349Z" stroke="#F4E2D8" stroke-width="0.5"/>
<path d="M162.41 63.77C164.717 62.5303 167.162 62.594 167.87 63.9122C168.578 65.2305 167.282 67.3041 164.976 68.5438C162.669 69.7834 160.224 69.7198 159.516 68.4015C158.808 67.0833 160.103 65.0097 162.41 63.77Z" stroke="#F4E2D8" stroke-width="0.5"/>
<path d="M182.808 55.094C182.819 53.5976 180.706 52.3682 178.087 52.3481C175.468 52.328 173.336 53.5249 173.324 55.0214C173.313 56.5178 175.426 57.7472 178.045 57.7673C180.664 57.7874 182.796 56.5905 182.808 55.094Z" stroke="#F4E2D8" stroke-width="0.5"/>
<path d="M168.38 50.5956C170.789 49.5694 173.218 49.8536 173.804 51.2305C174.391 52.6073 172.913 54.5554 170.503 55.5816C168.094 56.6078 165.665 56.3236 165.079 54.9467C164.492 53.5699 165.97 51.6218 168.38 50.5956Z" stroke="#F4E2D8" stroke-width="0.5"/>
<path d="M174.48 58.1775C174.023 56.7525 171.631 56.2454 169.137 57.0449C166.643 57.8444 164.992 59.6478 165.449 61.0728C165.906 62.4979 168.298 63.005 170.792 62.2055C173.286 61.406 174.937 59.6026 174.48 58.1775Z" stroke="#F4E2D8" stroke-width="0.5"/>
<path d="M153.411 68.5188C150.808 68.2292 148.832 66.7888 148.998 65.3015C149.163 63.8141 151.407 62.8431 154.01 63.1326C156.613 63.4221 158.589 64.8626 158.423 66.3499C158.258 67.8373 156.014 68.8083 153.411 68.5188Z" stroke="#F4E2D8" stroke-width="0.5"/>
<path d="M168.387 66.8292C169.004 68.1923 171.439 68.4212 173.824 67.3403C176.21 66.2595 177.643 64.2783 177.025 62.9151C176.407 61.552 173.973 61.3232 171.588 62.404C169.202 63.4849 167.769 65.4661 168.387 66.8292Z" stroke="#F4E2D8" stroke-width="0.5"/>
<path d="M185.238 61.5876C183.193 59.9521 182.292 57.6788 183.227 56.51C184.161 55.3411 186.577 55.7194 188.623 57.3548C190.668 58.9902 191.569 61.2636 190.634 62.4324C189.7 63.6012 187.284 63.223 185.238 61.5876Z" stroke="#F4E2D8" stroke-width="0.5"/>
<path d="M193.933 68.0713C194.236 66.6057 192.402 64.9883 189.837 64.4588C187.273 63.9293 184.948 64.6881 184.646 66.1537C184.343 67.6193 186.177 69.2367 188.742 69.7662C191.306 70.2957 193.631 69.5369 193.933 68.0713Z" stroke="#F4E2D8" stroke-width="0.5"/>
<path d="M197.468 62.087C199.557 63.6662 200.519 65.9141 199.617 67.108C198.714 68.3018 196.289 67.9895 194.2 66.4104C192.111 64.8313 191.149 62.5834 192.051 61.3895C192.953 60.1956 195.378 60.5079 197.468 62.087Z" stroke="#F4E2D8" stroke-width="0.5"/>
<path d="M192.225 71.817C191.735 70.403 189.332 69.9519 186.857 70.8095C184.383 71.6671 182.774 73.5086 183.264 74.9226C183.754 76.3366 186.157 76.7877 188.632 75.9301C191.106 75.0725 192.715 73.231 192.225 71.817Z" stroke="#F4E2D8" stroke-width="0.5"/>
<path d="M190.426 84.455C192.78 85.6027 194.157 87.6236 193.501 88.9688C192.845 90.3139 190.405 90.4739 188.051 89.3262C185.697 88.1784 184.32 86.1575 184.976 84.8124C185.632 83.4672 188.072 83.3072 190.426 84.455Z" stroke="#F4E2D8" stroke-width="0.5"/>
<path d="M176.57 66.0382C175.761 67.2974 176.892 69.4654 179.095 70.8806C181.299 72.2957 183.741 72.4222 184.55 71.163C185.358 69.9037 184.227 67.7357 182.024 66.3206C179.82 64.9054 177.378 64.779 176.57 66.0382Z" stroke="#F4E2D8" stroke-width="0.5"/>
<path d="M179.678 64.5967C177.41 63.2872 176.178 61.1751 176.926 59.8791C177.674 58.583 180.119 58.5939 182.387 59.9034C184.655 61.2128 185.887 63.325 185.139 64.621C184.391 65.917 181.946 65.9061 179.678 64.5967Z" stroke="#F4E2D8" stroke-width="0.5"/>
<path d="M191.52 79.8257C191.565 78.3299 189.48 77.0526 186.863 76.9727C184.245 76.8928 182.086 78.0407 182.04 79.5365C181.995 81.0323 184.08 82.3097 186.697 82.3895C189.315 82.4694 191.474 81.3215 191.52 79.8257Z" stroke="#F4E2D8" stroke-width="0.5"/>
<path d="M206.15 74.9193C208.408 76.2461 209.624 78.3676 208.865 79.6578C208.107 80.9481 205.662 80.9185 203.404 79.5917C201.146 78.2649 199.931 76.1434 200.689 74.8531C201.447 73.5629 203.892 73.5925 206.15 74.9193Z" stroke="#F4E2D8" stroke-width="0.5"/>
<path d="M203 71.8101C203.18 70.3246 201.219 68.8641 198.62 68.5481C196.02 68.2321 193.766 69.1802 193.585 70.6658C193.405 72.1514 195.366 73.6118 197.966 73.9278C200.565 74.2438 202.819 73.2957 203 71.8101Z" stroke="#F4E2D8" stroke-width="0.5"/>
<path d="M196.051 74.512C198.61 75.0666 200.428 76.7018 200.112 78.1643C199.795 79.6269 197.463 80.363 194.903 79.8085C192.344 79.254 190.526 77.6188 190.843 76.1562C191.16 74.6936 193.491 73.9575 196.051 74.512Z" stroke="#F4E2D8" stroke-width="0.5"/>
<path d="M174.481 71.5927C173.594 72.798 174.585 75.0334 176.695 76.5856C178.804 78.1377 181.233 78.4189 182.12 77.2135C183.007 76.0082 182.016 73.7728 179.907 72.2206C177.797 70.6684 175.368 70.3873 174.481 71.5927Z" stroke="#F4E2D8" stroke-width="0.5"/>
<path d="M194.962 85.7716C192.356 85.5149 190.362 84.0995 190.509 82.6102C190.655 81.1209 192.887 80.1217 195.493 80.3784C198.1 80.635 200.094 82.0505 199.947 83.5398C199.8 85.0291 197.568 86.0283 194.962 85.7716Z" stroke="#F4E2D8" stroke-width="0.5"/>
<path d="M208.52 81.0936C207.127 81.6385 206.77 84.0576 207.724 86.4967C208.677 88.9357 210.58 90.4712 211.974 89.9262C213.368 89.3812 213.725 86.9622 212.771 84.5231C211.817 82.084 209.914 80.5486 208.52 81.0936Z" stroke="#F4E2D8" stroke-width="0.5"/>
<path d="M210.271 91.2827C212.227 93.0237 213.007 95.3413 212.012 96.4593C211.017 97.5772 208.625 97.0722 206.668 95.3312C204.712 93.5902 203.932 91.2725 204.927 90.1546C205.922 89.0366 208.314 89.5417 210.271 91.2827Z" stroke="#F4E2D8" stroke-width="0.5"/>
<path d="M217.415 98.4667C218.794 97.8839 219.084 95.456 218.065 93.0439C217.045 90.6317 215.101 89.1486 213.722 89.7314C212.344 90.3141 212.053 92.742 213.073 95.1542C214.093 97.5664 216.037 99.0494 217.415 98.4667Z" stroke="#F4E2D8" stroke-width="0.5"/>
<path d="M204.515 95.2926C207.086 95.7871 208.942 97.3794 208.66 98.849C208.377 100.319 206.063 101.109 203.491 100.614C200.919 100.12 199.064 98.5276 199.346 97.058C199.629 95.5884 201.943 94.798 204.515 95.2926Z" stroke="#F4E2D8" stroke-width="0.5"/>
<path d="M201.188 114.341C202.429 113.504 202.247 111.065 200.782 108.894C199.318 106.723 197.125 105.642 195.884 106.479C194.643 107.316 194.825 109.754 196.29 111.925C197.755 114.096 199.948 115.178 201.188 114.341Z" stroke="#F4E2D8" stroke-width="0.5"/>
<path d="M197.757 91.4732C196.556 89.1458 196.661 86.7028 197.991 86.0166C199.321 85.3304 201.372 86.6609 202.573 88.9883C203.774 91.3157 203.669 93.7586 202.339 94.4448C201.009 95.131 198.958 93.8005 197.757 91.4732Z" stroke="#F4E2D8" stroke-width="0.5"/>
<path d="M201.379 80.8608C200.083 81.609 200.094 84.0542 201.403 86.3222C202.713 88.5903 204.825 89.8223 206.121 89.074C207.417 88.3258 207.406 85.8806 206.097 83.6126C204.787 81.3445 202.675 80.1125 201.379 80.8608Z" stroke="#F4E2D8" stroke-width="0.5"/>
<path d="M201.438 100.633C203.665 102.011 204.832 104.159 204.044 105.432C203.257 106.705 200.813 106.619 198.586 105.241C196.359 103.863 195.192 101.714 195.979 100.442C196.767 99.1693 199.211 99.2547 201.438 100.633Z" stroke="#F4E2D8" stroke-width="0.5"/>
<path d="M219.15 113.959C220.452 113.221 220.46 110.776 219.167 108.498C217.875 106.22 215.773 104.972 214.471 105.71C213.169 106.448 213.162 108.894 214.454 111.172C215.746 113.45 217.848 114.698 219.15 113.959Z" stroke="#F4E2D8" stroke-width="0.5"/>
<path d="M215.832 99.2152C217.925 100.789 218.893 103.034 217.994 104.23C217.095 105.427 214.669 105.121 212.576 103.547C210.482 101.974 209.514 99.7284 210.413 98.5321C211.312 97.3358 213.738 97.6417 215.832 99.2152Z" stroke="#F4E2D8" stroke-width="0.5"/>
<path d="M212.316 108.289C213.321 107.181 212.565 104.856 210.625 103.096C208.686 101.336 206.298 100.807 205.293 101.916C204.287 103.024 205.044 105.349 206.983 107.109C208.923 108.869 211.31 109.397 212.316 108.289Z" stroke="#F4E2D8" stroke-width="0.5"/>
<path d="M192.825 95.2134C191.775 92.8146 192.034 90.3832 193.405 89.7828C194.776 89.1824 196.739 90.6403 197.79 93.0392C198.84 95.4381 198.581 97.8695 197.21 98.4699C195.839 99.0703 193.876 97.6123 192.825 95.2134Z" stroke="#F4E2D8" stroke-width="0.5"/>
<path d="M201.776 107.338C200.905 108.554 201.924 110.777 204.053 112.303C206.181 113.828 208.614 114.078 209.485 112.862C210.357 111.646 209.338 109.423 207.209 107.897C205.08 106.372 202.648 106.121 201.776 107.338Z" stroke="#F4E2D8" stroke-width="0.5"/>
<path d="M214.742 119.311C215.135 116.722 216.654 114.805 218.133 115.03C219.613 115.255 220.493 117.537 220.1 120.126C219.706 122.715 218.188 124.631 216.708 124.407C215.229 124.182 214.348 121.9 214.742 119.311Z" stroke="#F4E2D8" stroke-width="0.5"/>
<path d="M213.474 130.083C214.895 129.612 215.379 127.216 214.555 124.73C213.731 122.244 211.911 120.61 210.491 121.081C209.07 121.552 208.587 123.948 209.41 126.434C210.234 128.92 212.054 130.554 213.474 130.083Z" stroke="#F4E2D8" stroke-width="0.5"/>
<path d="M220.424 130.152C220.101 132.751 218.635 134.708 217.15 134.523C215.665 134.339 214.723 132.083 215.046 129.484C215.369 126.885 216.834 124.927 218.319 125.112C219.805 125.296 220.747 127.553 220.424 130.152Z" stroke="#F4E2D8" stroke-width="0.5"/>
<path d="M209.376 130.477C210.356 129.345 209.545 127.038 207.565 125.324C205.585 123.61 203.186 123.138 202.206 124.269C201.227 125.4 202.038 127.707 204.018 129.421C205.997 131.136 208.397 131.608 209.376 130.477Z" stroke="#F4E2D8" stroke-width="0.5"/>
<path d="M197.532 135.237C197.715 137.85 196.653 140.053 195.16 140.157C193.667 140.262 192.309 138.229 192.126 135.616C191.943 133.004 193.004 130.801 194.497 130.696C195.99 130.592 197.349 132.625 197.532 135.237Z" stroke="#F4E2D8" stroke-width="0.5"/>
<path d="M206.553 114.029C205.058 113.958 203.746 116.022 203.622 118.638C203.498 121.254 204.61 123.432 206.105 123.502C207.6 123.573 208.912 121.51 209.036 118.894C209.159 116.278 208.048 114.1 206.553 114.029Z" stroke="#F4E2D8" stroke-width="0.5"/>
<path d="M209.355 116C209.355 113.381 210.569 111.258 212.065 111.258C213.562 111.258 214.775 113.381 214.775 116C214.775 118.619 213.562 120.742 212.065 120.742C210.569 120.742 209.355 118.619 209.355 116Z" stroke="#F4E2D8" stroke-width="0.5"/>
<path d="M202.088 133.87C203.406 133.162 203.47 130.717 202.23 128.41C200.99 126.103 198.917 124.808 197.598 125.516C196.28 126.224 196.216 128.669 197.456 130.976C198.696 133.283 200.769 134.578 202.088 133.87Z" stroke="#F4E2D8" stroke-width="0.5"/>
<path d="M213.652 144.087C213.632 146.706 212.402 148.819 210.906 148.808C209.409 148.796 208.213 146.664 208.233 144.045C208.253 141.426 209.482 139.313 210.979 139.324C212.475 139.336 213.672 141.468 213.652 144.087Z" stroke="#F4E2D8" stroke-width="0.5"/>
<path d="M214.77 139.804C216.146 139.218 216.431 136.789 215.404 134.38C214.378 131.97 212.43 130.493 211.053 131.079C209.676 131.665 209.392 134.094 210.418 136.503C211.445 138.913 213.393 140.391 214.77 139.804Z" stroke="#F4E2D8" stroke-width="0.5"/>
<path d="M208.955 135.137C209.755 137.631 209.247 140.023 207.822 140.48C206.397 140.937 204.594 139.286 203.794 136.792C202.995 134.298 203.502 131.906 204.927 131.449C206.352 130.992 208.156 132.643 208.955 135.137Z" stroke="#F4E2D8" stroke-width="0.5"/>
<path d="M200.699 114.998C199.211 114.832 197.771 116.808 197.481 119.411C197.192 122.014 198.163 124.258 199.65 124.424C201.137 124.589 202.578 122.613 202.867 120.01C203.157 117.407 202.186 115.163 200.699 114.998Z" stroke="#F4E2D8" stroke-width="0.5"/>
<path d="M198.66 139.824C197.579 137.439 197.808 135.004 199.171 134.387C200.534 133.769 202.515 135.202 203.596 137.588C204.677 139.973 204.448 142.408 203.085 143.025C201.722 143.643 199.74 142.21 198.66 139.824Z" stroke="#F4E2D8" stroke-width="0.5"/>
<path d="M209.49 149.227C208.321 148.292 206.048 149.193 204.412 151.238C202.777 153.284 202.399 155.7 203.568 156.634C204.736 157.569 207.01 156.668 208.645 154.623C210.281 152.577 210.659 150.161 209.49 149.227Z" stroke="#F4E2D8" stroke-width="0.5"/>
<path d="M201.541 155.837C201.012 158.402 199.394 160.236 197.929 159.934C196.463 159.631 195.704 157.306 196.234 154.742C196.763 152.177 198.381 150.343 199.846 150.646C201.312 150.948 202.071 153.273 201.541 155.837Z" stroke="#F4E2D8" stroke-width="0.5"/>
<path d="M198.892 165.617C200.086 166.519 202.334 165.557 203.913 163.468C205.492 161.378 205.804 158.953 204.61 158.051C203.417 157.149 201.169 158.111 199.59 160.2C198.01 162.289 197.698 164.714 198.892 165.617Z" stroke="#F4E2D8" stroke-width="0.5"/>
<path d="M195.19 152.857C196.048 155.332 195.597 157.735 194.183 158.225C192.769 158.715 190.927 157.107 190.07 154.632C189.212 152.158 189.663 149.754 191.077 149.264C192.491 148.774 194.333 150.383 195.19 152.857Z" stroke="#F4E2D8" stroke-width="0.5"/>
<path d="M177.031 159.501C178.376 160.157 180.397 158.78 181.545 156.426C182.693 154.072 182.533 151.632 181.188 150.976C179.842 150.32 177.822 151.697 176.674 154.051C175.526 156.405 175.686 158.845 177.031 159.501Z" stroke="#F4E2D8" stroke-width="0.5"/>
<path d="M195.119 145.095C196.535 142.892 198.703 141.761 199.962 142.57C201.221 143.378 201.095 145.82 199.679 148.024C198.264 150.227 196.096 151.358 194.837 150.55C193.578 149.741 193.704 147.299 195.119 145.095Z" stroke="#F4E2D8" stroke-width="0.5"/>
<path d="M206.121 142.926C204.825 142.178 202.713 143.41 201.403 145.678C200.094 147.946 200.083 150.391 201.379 151.139C202.675 151.887 204.787 150.655 206.097 148.387C207.406 146.119 207.417 143.674 206.121 142.926Z" stroke="#F4E2D8" stroke-width="0.5"/>
<path d="M189.027 152.863C188.947 155.48 187.67 157.565 186.174 157.52C184.678 157.474 183.531 155.315 183.61 152.697C183.69 150.08 184.968 147.995 186.463 148.04C187.959 148.086 189.107 150.245 189.027 152.863Z" stroke="#F4E2D8" stroke-width="0.5"/>
<path d="M186.342 174.865C187.632 175.624 189.754 174.408 191.081 172.15C192.408 169.892 192.437 167.447 191.147 166.689C189.857 165.931 187.735 167.146 186.408 169.404C185.082 171.662 185.052 174.107 186.342 174.865Z" stroke="#F4E2D8" stroke-width="0.5"/>
<path d="M197.452 164.62C197.136 167.219 195.675 169.181 194.19 169C192.704 168.819 191.756 166.565 192.072 163.966C192.388 161.366 193.849 159.405 195.334 159.585C196.82 159.766 197.768 162.02 197.452 164.62Z" stroke="#F4E2D8" stroke-width="0.5"/>
<path d="M187.836 166.112C189.298 166.429 190.933 164.611 191.488 162.051C192.043 159.492 191.306 157.16 189.844 156.843C188.381 156.526 186.746 158.344 186.192 160.904C185.637 163.463 186.373 165.795 187.836 166.112Z" stroke="#F4E2D8" stroke-width="0.5"/>
<path d="M189.414 142.695C190.967 140.585 193.202 139.594 194.407 140.481C195.613 141.368 195.332 143.797 193.779 145.907C192.227 148.016 189.992 149.007 188.786 148.12C187.581 147.233 187.862 144.804 189.414 142.695Z" stroke="#F4E2D8" stroke-width="0.5"/>
<path d="M183.39 156.509C181.9 156.362 180.485 158.356 180.228 160.962C179.972 163.568 180.971 165.8 182.46 165.947C183.95 166.094 185.365 164.1 185.622 161.493C185.878 158.887 184.879 156.655 183.39 156.509Z" stroke="#F4E2D8" stroke-width="0.5"/>
<path d="M179.503 173.724C181.942 172.77 184.361 173.127 184.906 174.52C185.451 175.914 183.916 177.817 181.477 178.771C179.038 179.725 176.619 179.368 176.074 177.974C175.529 176.58 177.064 174.677 179.503 173.724Z" stroke="#F4E2D8" stroke-width="0.5"/>
<path d="M169.541 178.012C170.659 179.007 172.976 178.227 174.717 176.271C176.458 174.314 176.963 171.922 175.845 170.927C174.727 169.932 172.41 170.712 170.669 172.668C168.928 174.625 168.423 177.017 169.541 178.012Z" stroke="#F4E2D8" stroke-width="0.5"/>
<path d="M172.956 184.065C170.544 185.085 168.116 184.794 167.533 183.415C166.951 182.037 168.434 180.093 170.846 179.073C173.258 178.053 175.686 178.344 176.269 179.722C176.851 181.101 175.368 183.045 172.956 184.065Z" stroke="#F4E2D8" stroke-width="0.5"/>
<path d="M167.151 174.66C168.621 174.942 170.213 173.086 170.707 170.515C171.202 167.943 170.412 165.629 168.942 165.346C167.472 165.064 165.88 166.919 165.386 169.491C164.891 172.063 165.681 174.377 167.151 174.66Z" stroke="#F4E2D8" stroke-width="0.5"/>
<path d="M157.106 166.782C154.935 168.247 152.496 168.429 151.659 167.188C150.822 165.948 151.904 163.755 154.075 162.29C156.246 160.825 158.684 160.643 159.521 161.884C160.358 163.125 159.277 165.318 157.106 166.782Z" stroke="#F4E2D8" stroke-width="0.5"/>
<path d="M179.983 163.991C179.297 162.661 176.854 162.556 174.527 163.757C172.199 164.958 170.869 167.009 171.555 168.339C172.241 169.669 174.684 169.774 177.012 168.573C179.339 167.372 180.67 165.321 179.983 163.991Z" stroke="#F4E2D8" stroke-width="0.5"/>
<path d="M179.678 167.403C181.946 166.094 184.391 166.083 185.139 167.379C185.887 168.675 184.655 170.787 182.387 172.097C180.119 173.406 177.674 173.417 176.926 172.121C176.178 170.825 177.41 168.713 179.678 167.403Z" stroke="#F4E2D8" stroke-width="0.5"/>
<path d="M160.568 170.044C161.841 170.832 163.989 169.665 165.367 167.438C166.745 165.211 166.831 162.767 165.558 161.979C164.286 161.192 162.137 162.359 160.759 164.586C159.381 166.813 159.295 169.257 160.568 170.044Z" stroke="#F4E2D8" stroke-width="0.5"/>
<path d="M157.502 185.168C155.224 186.46 152.779 186.452 152.041 185.15C151.302 183.848 152.55 181.746 154.828 180.454C157.106 179.162 159.552 179.169 160.29 180.471C161.028 181.773 159.78 183.876 157.502 185.168Z" stroke="#F4E2D8" stroke-width="0.5"/>
<path d="M161.77 183.994C162.966 184.893 165.211 183.925 166.785 181.832C168.358 179.738 168.664 177.312 167.468 176.413C166.272 175.514 164.026 176.482 162.453 178.576C160.879 180.669 160.573 183.095 161.77 183.994Z" stroke="#F4E2D8" stroke-width="0.5"/>
<path d="M162.904 176.625C161.144 178.565 158.819 179.322 157.711 178.316C156.603 177.31 157.131 174.923 158.891 172.983C160.651 171.044 162.976 170.287 164.084 171.293C165.192 172.299 164.664 174.686 162.904 176.625Z" stroke="#F4E2D8" stroke-width="0.5"/>
<path d="M176.217 159.405C175.617 158.034 173.185 157.775 170.786 158.826C168.388 159.876 166.93 161.839 167.53 163.21C168.13 164.581 170.562 164.84 172.961 163.79C175.36 162.739 176.818 160.776 176.217 159.405Z" stroke="#F4E2D8" stroke-width="0.5"/>
<path d="M153.697 170.053C155.223 167.924 157.446 166.905 158.662 167.776C159.878 168.648 159.628 171.08 158.103 173.209C156.577 175.338 154.354 176.357 153.138 175.485C151.921 174.614 152.172 172.181 153.697 170.053Z" stroke="#F4E2D8" stroke-width="0.5"/>
<path d="M150.97 184.133C151.194 182.654 149.278 181.135 146.689 180.742C144.1 180.348 141.818 181.229 141.593 182.708C141.369 184.188 143.285 185.706 145.874 186.1C148.463 186.493 150.745 185.613 150.97 184.133Z" stroke="#F4E2D8" stroke-width="0.5"/>
<path d="M141.27 180.555C138.784 181.379 136.388 180.895 135.917 179.474C135.446 178.054 137.08 176.234 139.566 175.41C142.052 174.587 144.448 175.07 144.919 176.491C145.39 177.911 143.756 179.731 141.27 180.555Z" stroke="#F4E2D8" stroke-width="0.5"/>
<path d="M131.477 183.15C131.292 184.635 133.249 186.101 135.848 186.424C138.447 186.747 140.703 185.805 140.888 184.319C141.073 182.834 139.115 181.369 136.516 181.046C133.917 180.723 131.661 181.665 131.477 183.15Z" stroke="#F4E2D8" stroke-width="0.5"/>
<path d="M140.676 173.565C138.962 175.545 136.655 176.356 135.523 175.376C134.392 174.397 134.864 171.997 136.579 170.018C138.293 168.038 140.6 167.227 141.731 168.206C142.862 169.186 142.39 171.585 140.676 173.565Z" stroke="#F4E2D8" stroke-width="0.5"/>
<path d="M125.843 161.16C125.947 162.653 128.15 163.715 130.763 163.532C133.375 163.349 135.408 161.99 135.304 160.497C135.199 159.004 132.996 157.943 130.384 158.126C127.771 158.309 125.738 159.667 125.843 161.16Z" stroke="#F4E2D8" stroke-width="0.5"/>
<path d="M147.362 169.622C149.978 169.746 152.042 171.058 151.971 172.553C151.9 174.048 149.722 175.159 147.106 175.035C144.49 174.912 142.427 173.6 142.498 172.105C142.568 170.61 144.746 169.498 147.362 169.622Z" stroke="#F4E2D8" stroke-width="0.5"/>
<path d="M154.742 178.065C154.742 176.569 152.619 175.355 150 175.355C147.381 175.355 145.258 176.569 145.258 178.065C145.258 179.562 147.381 180.775 150 180.775C152.619 180.775 154.742 179.562 154.742 178.065Z" stroke="#F4E2D8" stroke-width="0.5"/>
<path d="M137.59 168.23C135.283 169.47 132.838 169.406 132.13 168.088C131.422 166.769 132.717 164.696 135.024 163.456C137.331 162.216 139.776 162.28 140.484 163.598C141.192 164.917 139.897 166.99 137.59 168.23Z" stroke="#F4E2D8" stroke-width="0.5"/>
<path d="M117.192 176.906C117.181 178.402 119.294 179.632 121.913 179.652C124.532 179.672 126.664 178.475 126.676 176.979C126.687 175.482 124.573 174.253 121.955 174.233C119.336 174.213 117.204 175.409 117.192 176.906Z" stroke="#F4E2D8" stroke-width="0.5"/>
<path d="M131.62 181.404C129.211 182.431 126.782 182.146 126.196 180.769C125.609 179.393 127.087 177.445 129.497 176.418C131.906 175.392 134.335 175.676 134.921 177.053C135.507 178.43 134.03 180.378 131.62 181.404Z" stroke="#F4E2D8" stroke-width="0.5"/>
<path d="M125.52 173.822C125.977 175.247 128.369 175.755 130.863 174.955C133.356 174.156 135.008 172.352 134.551 170.927C134.094 169.502 131.702 168.995 129.208 169.794C126.714 170.594 125.063 172.397 125.52 173.822Z" stroke="#F4E2D8" stroke-width="0.5"/>
<path d="M146.589 163.481C149.192 163.771 151.168 165.211 151.002 166.699C150.837 168.186 148.593 169.157 145.99 168.867C143.387 168.578 141.411 167.137 141.576 165.65C141.742 164.163 143.986 163.192 146.589 163.481Z" stroke="#F4E2D8" stroke-width="0.5"/>
<path d="M131.613 165.171C130.996 163.808 128.561 163.579 126.176 164.66C123.79 165.74 122.357 167.722 122.975 169.085C123.592 170.448 126.027 170.677 128.412 169.596C130.798 168.515 132.231 166.534 131.613 165.171Z" stroke="#F4E2D8" stroke-width="0.5"/>
<path d="M114.761 170.412C116.807 172.048 117.707 174.321 116.773 175.49C115.838 176.659 113.423 176.281 111.377 174.645C109.332 173.01 108.431 170.736 109.366 169.568C110.3 168.399 112.716 168.777 114.761 170.412Z" stroke="#F4E2D8" stroke-width="0.5"/>
<path d="M106.066 163.929C105.764 165.394 107.598 167.012 110.162 167.541C112.727 168.071 115.052 167.312 115.354 165.846C115.657 164.381 113.823 162.763 111.258 162.234C108.693 161.704 106.369 162.463 106.066 163.929Z" stroke="#F4E2D8" stroke-width="0.5"/>
<path d="M102.532 169.913C100.443 168.334 99.4807 166.086 100.383 164.892C101.285 163.698 103.711 164.01 105.8 165.59C107.889 167.169 108.851 169.417 107.949 170.611C107.047 171.804 104.621 171.492 102.532 169.913Z" stroke="#F4E2D8" stroke-width="0.5"/>
<path d="M107.775 160.183C108.265 161.597 110.668 162.048 113.143 161.191C115.617 160.333 117.226 158.491 116.736 157.077C116.246 155.663 113.842 155.212 111.368 156.07C108.893 156.928 107.285 158.769 107.775 160.183Z" stroke="#F4E2D8" stroke-width="0.5"/>
<path d="M109.574 147.545C107.22 146.397 105.843 144.376 106.499 143.031C107.155 141.686 109.595 141.526 111.949 142.674C114.303 143.822 115.68 145.842 115.024 147.188C114.368 148.533 111.928 148.693 109.574 147.545Z" stroke="#F4E2D8" stroke-width="0.5"/>
<path d="M123.43 165.962C124.239 164.703 123.108 162.535 120.904 161.119C118.701 159.704 116.259 159.578 115.45 160.837C114.642 162.096 115.772 164.264 117.976 165.679C120.18 167.095 122.622 167.221 123.43 165.962Z" stroke="#F4E2D8" stroke-width="0.5"/>
<path d="M120.322 167.403C122.59 168.713 123.822 170.825 123.074 172.121C122.326 173.417 119.881 173.406 117.613 172.097C115.345 170.787 114.112 168.675 114.861 167.379C115.609 166.083 118.054 166.094 120.322 167.403Z" stroke="#F4E2D8" stroke-width="0.5"/>
<path d="M108.48 152.174C108.435 153.67 110.52 154.947 113.137 155.027C115.755 155.107 117.914 153.959 117.96 152.464C118.005 150.968 115.92 149.69 113.303 149.61C110.685 149.531 108.526 150.678 108.48 152.174Z" stroke="#F4E2D8" stroke-width="0.5"/>
<path d="M93.8501 157.081C91.5921 155.754 90.3763 153.632 91.1345 152.342C91.8927 151.052 94.3377 151.082 96.5956 152.408C98.8535 153.735 100.069 155.857 99.3112 157.147C98.553 158.437 96.108 158.408 93.8501 157.081Z" stroke="#F4E2D8" stroke-width="0.5"/>
<path d="M97 160.19C96.8194 161.675 98.7805 163.136 101.38 163.452C103.98 163.768 106.234 162.82 106.415 161.334C106.595 159.849 104.634 158.388 102.034 158.072C99.4344 157.756 97.1805 158.704 97 160.19Z" stroke="#F4E2D8" stroke-width="0.5"/>
<path d="M103.949 157.488C101.389 156.933 99.5714 155.298 99.8883 153.836C100.205 152.373 102.537 151.637 105.096 152.191C107.656 152.746 109.474 154.381 109.157 155.844C108.84 157.306 106.508 158.042 103.949 157.488Z" stroke="#F4E2D8" stroke-width="0.5"/>
<path d="M125.519 160.407C126.406 159.202 125.415 156.967 123.305 155.414C121.196 153.862 118.767 153.581 117.88 154.786C116.993 155.992 117.984 158.227 120.093 159.779C122.203 161.332 124.632 161.613 125.519 160.407Z" stroke="#F4E2D8" stroke-width="0.5"/>
<path d="M105.038 146.228C107.644 146.485 109.638 147.9 109.491 149.39C109.345 150.879 107.113 151.878 104.507 151.622C101.9 151.365 99.9064 149.95 100.053 148.46C100.2 146.971 102.431 145.972 105.038 146.228Z" stroke="#F4E2D8" stroke-width="0.5"/>
<path d="M91.4795 150.906C92.8732 150.361 93.23 147.942 92.2762 145.503C91.3225 143.064 89.4195 141.529 88.0258 142.074C86.632 142.619 86.2753 145.038 87.229 147.477C88.1827 149.916 90.0857 151.451 91.4795 150.906Z" stroke="#F4E2D8" stroke-width="0.5"/>
<path d="M89.7291 140.717C87.7726 138.976 86.9931 136.659 87.988 135.541C88.9828 134.423 91.3753 134.928 93.3317 136.669C95.2882 138.41 96.0677 140.727 95.0728 141.845C94.078 142.963 91.6855 142.458 89.7291 140.717Z" stroke="#F4E2D8" stroke-width="0.5"/>
<path d="M82.5844 133.533C81.206 134.116 80.9153 136.544 81.9352 138.956C82.955 141.368 84.8991 142.851 86.2775 142.269C87.6559 141.686 87.9466 139.258 86.9267 136.846C85.9069 134.434 83.9628 132.951 82.5844 133.533Z" stroke="#F4E2D8" stroke-width="0.5"/>
<path d="M95.4852 136.707C92.9134 136.213 91.0577 134.621 91.3403 133.151C91.6229 131.681 93.9368 130.891 96.5086 131.386C99.0804 131.88 100.936 133.472 100.654 134.942C100.371 136.412 98.057 137.202 95.4852 136.707Z" stroke="#F4E2D8" stroke-width="0.5"/>
<path d="M98.8116 117.659C97.571 118.496 97.7528 120.935 99.2175 123.106C100.682 125.277 102.875 126.358 104.116 125.521C105.356 124.684 105.175 122.246 103.71 120.075C102.245 117.904 100.052 116.822 98.8116 117.659Z" stroke="#F4E2D8" stroke-width="0.5"/>
<path d="M102.243 140.527C103.444 142.854 103.339 145.297 102.009 145.983C100.679 146.67 98.6275 145.339 97.4267 143.012C96.2259 140.684 96.3306 138.241 97.6605 137.555C98.9904 136.869 101.042 138.2 102.243 140.527Z" stroke="#F4E2D8" stroke-width="0.5"/>
<path d="M98.6209 151.139C99.917 150.391 99.9061 147.946 98.5966 145.678C97.2872 143.41 95.175 142.178 93.879 142.926C92.583 143.674 92.5939 146.119 93.9033 148.387C95.2128 150.655 97.3249 151.887 98.6209 151.139Z" stroke="#F4E2D8" stroke-width="0.5"/>
<path d="M98.5622 131.367C96.3352 129.989 95.1682 127.841 95.9556 126.568C96.743 125.295 99.1867 125.381 101.414 126.759C103.641 128.137 104.808 130.286 104.02 131.558C103.233 132.831 100.789 132.745 98.5622 131.367Z" stroke="#F4E2D8" stroke-width="0.5"/>
<path d="M80.8499 118.041C79.5481 118.779 79.5403 121.224 80.8323 123.502C82.1244 125.78 84.227 127.028 85.5287 126.29C86.8304 125.552 86.8383 123.106 85.5463 120.828C84.2542 118.55 82.1516 117.302 80.8499 118.041Z" stroke="#F4E2D8" stroke-width="0.5"/>
<path d="M84.1681 132.785C82.0747 131.211 81.1065 128.966 82.0057 127.77C82.9048 126.573 85.3308 126.879 87.4243 128.453C89.5178 130.026 90.4859 132.272 89.5868 133.468C88.6876 134.664 86.2616 134.358 84.1681 132.785Z" stroke="#F4E2D8" stroke-width="0.5"/>
<path d="M87.6841 123.711C86.6784 124.819 87.4352 127.144 89.3746 128.904C91.3139 130.664 93.7014 131.193 94.7071 130.084C95.7128 128.976 94.9559 126.651 93.0166 124.891C91.0773 123.131 88.6898 122.603 87.6841 123.711Z" stroke="#F4E2D8" stroke-width="0.5"/>
<path d="M107.174 136.787C108.225 139.185 107.966 141.617 106.595 142.217C105.224 142.818 103.261 141.36 102.21 138.961C101.16 136.562 101.419 134.13 102.79 133.53C104.161 132.93 106.124 134.388 107.174 136.787Z" stroke="#F4E2D8" stroke-width="0.5"/>
<path d="M98.2234 124.662C99.0951 123.446 98.0761 121.223 95.9473 119.697C93.8185 118.172 91.3862 117.922 90.5145 119.138C89.6428 120.354 90.6619 122.577 92.7906 124.103C94.9194 125.628 97.3518 125.879 98.2234 124.662Z" stroke="#F4E2D8" stroke-width="0.5"/>
</g>
<circle cx="150" cy="116" r="47.4194" fill="#100E0E"/>
<circle cx="150" cy="116" r="43.3548" fill="white"/>
<path d="M72.8291 228.991L38.6836 229.025V237.263H43.7422V239.655H41.2129V247.893H43.7422C43.7764 249.943 44.2207 251.892 45.1094 253.703C45.998 255.549 47.1943 257.189 48.6982 258.557C50.2021 259.924 51.9453 261.052 53.9277 261.838C55.876 262.624 57.9609 263 60.1143 263H70.2998V254.763H60.1143C58.9863 254.763 57.9609 254.558 56.9355 254.147C55.9443 253.703 55.0898 253.122 54.3721 252.37C53.6543 251.652 53.0391 250.798 52.6289 249.807C52.3555 249.191 52.1846 248.542 52.082 247.893H56.457C58.6445 247.893 60.6953 247.517 62.6777 246.73C64.626 245.944 66.4033 244.816 67.873 243.449C69.377 242.082 70.6074 240.441 71.4961 238.596C72.3848 236.716 72.8291 234.733 72.8291 232.58V228.991ZM59.6357 239.04C58.6445 239.45 57.585 239.655 56.457 239.655H51.9795V237.263H62.2334C61.4814 238.015 60.627 238.596 59.6357 239.04ZM102.395 243.005V250.114H75.2559V243.005H102.395ZM148.708 229.128L130.866 229.094V226.564H122.629V229.094L104.787 229.128V247.688C104.787 249.841 105.231 251.823 106.154 253.703C107.043 255.549 108.239 257.189 109.777 258.557C111.247 259.924 112.99 261.052 114.973 261.838C117.331 262.795 119.006 263 122.629 263V265.598H130.866V263C134.387 263 136.096 262.829 138.522 261.838C140.505 261.052 142.248 259.924 143.752 258.557C145.256 257.189 146.452 255.549 147.375 253.703C148.264 251.823 148.708 249.841 148.708 247.688V229.128ZM121.159 254.763C120.031 254.763 119.006 254.558 118.015 254.147C116.989 253.703 116.135 253.122 115.417 252.37C114.699 251.652 114.118 250.798 113.708 249.807C113.229 248.781 113.024 247.756 113.024 246.628V237.365H122.629V254.763H121.159ZM139.821 249.807C139.411 250.798 138.796 251.652 138.078 252.37C137.36 253.122 136.506 253.703 135.515 254.147C134.489 254.558 133.464 254.763 132.336 254.763H130.866V237.365H140.471V246.628C140.471 247.756 140.266 248.781 139.821 249.807ZM171.95 228.991V233.913C167.199 234.528 162.893 236.477 159.372 239.382V228.991H151.135V263H159.372V256.984C159.372 253.293 161.286 249.841 163.918 247.175C166.14 244.953 168.942 243.483 171.95 242.868V263H180.188V228.991H171.95ZM214.162 229.025L198.952 228.991C196.765 228.991 194.714 229.367 192.731 230.188C190.783 230.974 189.006 232.067 187.536 233.435C186.032 234.836 184.802 236.442 183.913 238.322C183.024 240.168 182.58 242.185 182.58 244.304V263H190.817V245.363C190.817 244.235 191.022 243.21 191.467 242.219C191.877 241.193 192.458 240.339 193.176 239.621C193.894 238.903 194.782 238.322 195.773 237.844C196.765 237.434 197.79 237.229 198.952 237.229H203.396V263H211.633V237.194H214.162V229.025ZM248.171 237.263V229.025H216.555V237.263H237.404V239.655H216.555V247.688C216.555 249.943 217.033 251.857 217.888 253.703C218.811 255.549 220.007 257.189 221.511 258.557C223.015 259.924 224.758 261.052 226.74 261.838C228.688 262.624 230.773 263 232.927 263H245.642V237.263H248.171ZM232.927 254.763C231.799 254.763 230.773 254.558 229.748 254.147C228.757 253.703 227.902 253.122 227.185 252.37C226.467 251.652 225.852 250.798 225.441 249.807C225.168 249.191 224.997 248.542 224.895 247.893H237.404V254.763H232.927ZM259.279 246.525H251.11V217.609H259.279V246.525ZM259.279 263H251.11V254.831H259.279V263Z" fill="white"/>
</svg>
