<svg width="727" height="248" viewBox="0 0 727 248" fill="none" xmlns="http://www.w3.org/2000/svg">
<path d="M121.32 87.1406C100.93 87.1406 84.4062 103.664 84.4062 124.055C84.4062 144.445 100.93 160.969 121.32 160.969C141.711 160.969 158.234 144.445 158.234 124.055C158.234 103.664 141.711 87.1406 121.32 87.1406ZM121.32 104.086C126.664 104.086 131.656 106.195 135.453 109.922C139.18 113.719 141.289 118.711 141.289 124.055C141.289 129.398 139.18 134.391 135.453 138.188C131.656 141.914 126.664 144.023 121.32 144.023C115.977 144.023 110.984 141.914 107.188 138.188C103.461 134.391 101.352 129.398 101.352 124.055C101.352 118.711 103.461 113.719 107.188 109.922C110.984 106.195 115.977 104.086 121.32 104.086ZM280.508 89.0391L210.266 89.1094V106.055H220.672V110.977H215.469V127.922H220.672C220.742 132.141 221.656 136.148 223.484 139.875C225.312 143.672 227.773 147.047 230.867 149.859C233.961 152.672 237.547 154.992 241.625 156.609C245.633 158.227 249.922 159 254.352 159H275.305V142.055H254.352C252.031 142.055 249.922 141.633 247.812 140.789C245.773 139.875 244.016 138.68 242.539 137.133C241.062 135.656 239.797 133.898 238.953 131.859C238.391 130.594 238.039 129.258 237.828 127.922H246.828C251.328 127.922 255.547 127.148 259.625 125.531C263.633 123.914 267.289 121.594 270.312 118.781C273.406 115.969 275.938 112.594 277.766 108.797C279.594 104.93 280.508 100.852 280.508 96.4219V89.0391ZM253.367 109.711C251.328 110.555 249.148 110.977 246.828 110.977H237.617V106.055H258.711C257.164 107.602 255.406 108.797 253.367 109.711ZM341.328 117.867V132.492H285.5V117.867H341.328ZM436.602 89.3203L399.898 89.25V84.0469H382.953V89.25L346.25 89.3203V127.5C346.25 131.93 347.164 136.008 349.062 139.875C350.891 143.672 353.352 147.047 356.516 149.859C359.539 152.672 363.125 154.992 367.203 156.609C372.055 158.578 375.5 159 382.953 159V164.344H399.898V159C407.141 159 410.656 158.648 415.648 156.609C419.727 154.992 423.312 152.672 426.406 149.859C429.5 147.047 431.961 143.672 433.859 139.875C435.688 136.008 436.602 131.93 436.602 127.5V89.3203ZM379.93 142.055C377.609 142.055 375.5 141.633 373.461 140.789C371.352 139.875 369.594 138.68 368.117 137.133C366.641 135.656 365.445 133.898 364.602 131.859C363.617 129.75 363.195 127.641 363.195 125.32V106.266H382.953V142.055H379.93ZM418.32 131.859C417.477 133.898 416.211 135.656 414.734 137.133C413.258 138.68 411.5 139.875 409.461 140.789C407.352 141.633 405.242 142.055 402.922 142.055H399.898V106.266H419.656V125.32C419.656 127.641 419.234 129.75 418.32 131.859ZM484.414 89.0391V99.1641C474.641 100.43 465.781 104.438 458.539 110.414V89.0391H441.594V159H458.539V146.625C458.539 139.031 462.477 131.93 467.891 126.445C472.461 121.875 478.227 118.852 484.414 117.586V159H501.359V89.0391H484.414ZM571.25 89.1094L539.961 89.0391C535.461 89.0391 531.242 89.8125 527.164 91.5C523.156 93.1172 519.5 95.3672 516.477 98.1797C513.383 101.062 510.852 104.367 509.023 108.234C507.195 112.031 506.281 116.18 506.281 120.539V159H523.227V122.719C523.227 120.398 523.648 118.289 524.562 116.25C525.406 114.141 526.602 112.383 528.078 110.906C529.555 109.43 531.383 108.234 533.422 107.25C535.461 106.406 537.57 105.984 539.961 105.984H549.102V159H566.047V105.914H571.25V89.1094ZM641.211 106.055V89.1094H576.172V106.055H619.062V110.977H576.172V127.5C576.172 132.141 577.156 136.078 578.914 139.875C580.812 143.672 583.273 147.047 586.367 149.859C589.461 152.672 593.047 154.992 597.125 156.609C601.133 158.227 605.422 159 609.852 159H636.008V106.055H641.211ZM609.852 142.055C607.531 142.055 605.422 141.633 603.312 140.789C601.273 139.875 599.516 138.68 598.039 137.133C596.562 135.656 595.297 133.898 594.453 131.859C593.891 130.594 593.539 129.258 593.328 127.922H619.062V142.055H609.852ZM664.062 125.109H647.258V65.625H664.062V125.109ZM664.062 159H647.258V142.195H664.062V159Z" fill="white"/>
<circle cx="124" cy="124" r="62" fill="#FF4D00"/>
<path d="M116.395 62.4618C111.988 66.2692 108.144 70.6961 105.164 75.6293C103.051 79.1329 101.373 82.8915 100.237 86.8647C98.3106 93.6036 98.2653 102.001 100.699 109.093C103.12 116.151 107.923 121.76 115.643 123.405C116.243 123.533 116.952 123.612 117.705 123.626C116.618 123.046 115.627 122.357 114.846 121.652C107.99 115.473 106.551 107.029 108.124 98.9821C109.69 90.9707 114.256 83.1824 119.697 77.9199C122.885 74.8363 126.45 72.256 130.27 70.1528C134.331 67.9126 138.681 66.2122 143.169 65.0202C144.917 65.588 146.632 66.2314 148.308 66.9465C142.489 68.0295 136.848 69.9564 131.717 72.7816C128.13 74.7608 124.792 77.1797 121.818 80.0569C116.78 84.9299 112.542 92.1797 111.103 99.5384C109.671 106.862 111.026 114.12 116.889 119.404C117.345 119.816 117.92 120.239 118.564 120.627C117.913 119.581 117.4 118.489 117.075 117.488C114.228 108.709 117.203 100.677 122.589 94.4943C127.951 88.3394 135.8 83.8777 143.143 82.0404C147.457 80.9608 151.847 80.5096 156.219 80.6012C160.953 80.697 165.665 81.4297 170.235 82.6911C171.458 84.0589 172.621 85.4812 173.72 86.954C168.057 84.9187 162.112 83.7267 156.159 83.6016C152.05 83.5186 147.937 83.944 143.911 84.9515C137.112 86.6527 129.816 90.8123 124.891 96.4658C119.989 102.092 117.534 109.055 119.969 116.563C120.158 117.148 120.444 117.801 120.808 118.46C120.767 117.228 120.869 116.026 121.088 114.997C123.012 105.97 129.605 100.501 137.36 97.8405C145.082 95.1913 154.109 95.2515 161.387 97.3318C165.644 98.5487 169.656 100.343 173.382 102.594C177.557 105.112 181.375 108.205 184.781 111.703C185.139 113.485 185.421 115.295 185.624 117.128C181.677 112.413 177.034 108.306 171.827 105.16C168.325 103.049 164.568 101.372 160.597 100.237C153.858 98.3106 145.46 98.2653 138.368 100.699C131.31 103.12 125.702 107.923 124.057 115.643C123.929 116.243 123.849 116.952 123.835 117.705C124.415 116.618 125.105 115.627 125.809 114.846C131.988 107.99 140.433 106.551 148.479 108.124C156.491 109.69 164.279 114.256 169.542 119.697C172.627 122.886 175.209 126.454 177.312 130.277C179.702 134.611 181.477 139.272 182.676 144.081C182.081 145.818 181.412 147.52 180.672 149.184C179.624 143.061 177.65 137.115 174.687 131.73C172.707 128.138 170.285 124.795 167.405 121.818C162.532 116.78 155.282 112.542 147.923 111.103C140.6 109.671 133.342 111.026 128.057 116.889C127.646 117.345 127.223 117.919 126.834 118.564C127.88 117.913 128.972 117.4 129.973 117.075C138.752 114.228 146.785 117.203 152.967 122.589C159.122 127.951 163.584 135.8 165.421 143.143C166.499 147.452 166.951 151.837 166.861 156.204C166.762 161.161 165.964 166.094 164.593 170.865C163.217 172.058 161.788 173.191 160.31 174.261C162.467 168.432 163.733 162.293 163.86 156.146C163.942 152.041 163.517 147.933 162.51 143.911C160.809 137.112 156.649 129.816 150.996 124.891C145.369 119.989 138.407 117.534 130.898 119.969C130.314 120.158 129.661 120.444 129.002 120.808C130.233 120.767 131.435 120.869 132.465 121.088C141.491 123.012 146.96 129.605 149.621 137.36C152.27 145.082 152.21 154.109 150.13 161.387C148.91 165.654 147.111 169.674 144.852 173.408C142.304 177.627 139.17 181.481 135.622 184.912C133.859 185.247 132.069 185.507 130.256 185.688C134.994 181.737 139.12 177.083 142.28 171.861C144.402 168.349 146.086 164.581 147.225 160.597C149.151 153.858 149.196 145.46 146.763 138.368C144.341 131.31 139.539 125.702 131.819 124.057C131.218 123.929 130.51 123.849 129.757 123.835C130.844 124.415 131.834 125.105 132.616 125.809C139.471 131.988 140.911 140.433 139.338 148.479C137.771 156.491 133.205 164.279 127.765 169.542C124.582 172.621 121.022 175.198 117.209 177.299C112.962 179.644 108.399 181.398 103.692 182.598C101.981 182.005 100.304 181.339 98.6644 180.604C104.663 179.538 110.482 177.58 115.761 174.671C119.342 172.693 122.674 170.277 125.644 167.405C130.682 162.532 134.92 155.282 136.358 147.923C137.79 140.6 136.436 133.342 130.572 128.057C130.116 127.646 129.542 127.223 128.897 126.834C129.549 127.88 130.061 128.972 130.386 129.973C133.234 138.752 130.258 146.785 124.872 152.967C119.51 159.122 111.662 163.584 104.319 165.421C100.023 166.496 95.6516 166.948 91.2986 166.861C86.5744 166.771 81.8714 166.046 77.3092 164.793C76.1244 163.438 74.9975 162.031 73.9326 160.576C79.5551 162.575 85.4514 163.743 91.3552 163.861C95.4466 163.939 99.5414 163.513 103.551 162.51C110.35 160.809 117.645 156.649 122.57 150.996C127.472 145.369 129.928 138.407 127.493 130.898C127.303 130.314 127.017 129.661 126.653 129.002C126.695 130.233 126.593 131.435 126.373 132.465C124.45 141.491 117.857 146.96 110.101 149.621C102.38 152.27 93.3521 152.21 86.0744 150.13C81.8041 148.909 77.7816 147.108 74.0461 144.847C70.1032 142.465 66.4796 139.571 63.2213 136.307C62.8691 134.557 62.5904 132.781 62.3888 130.982C66.204 135.414 70.6445 139.281 75.5957 142.278C79.1089 144.4 82.8788 146.085 86.8647 147.225C93.6037 149.151 102.001 149.196 109.093 146.763C116.151 144.341 121.76 139.539 123.405 131.819C123.533 131.218 123.612 130.51 123.626 129.757C123.046 130.844 122.357 131.834 121.652 132.616C115.473 139.471 107.029 140.911 98.9821 139.338C90.9707 137.771 83.1824 133.205 77.9199 127.765C74.8419 124.583 72.2655 121.024 70.1644 117.213C67.9677 113.234 66.2894 108.98 65.0996 104.588C65.6666 102.867 66.3071 101.178 67.0172 99.527C68.1136 105.22 70.021 110.735 72.7904 115.76C74.768 119.342 77.184 122.674 80.0569 125.644C84.9298 130.682 92.1797 134.92 99.5384 136.358C106.862 137.79 114.12 136.436 119.404 130.572C119.816 130.116 120.239 129.542 120.627 128.897C119.581 129.549 118.489 130.061 117.488 130.386C108.709 133.234 100.677 130.258 94.4943 124.872C88.3394 119.51 83.8777 111.662 82.0404 104.319C80.962 100.009 80.5105 95.6233 80.601 91.2564C80.6906 86.7629 81.3544 82.2888 82.4996 77.9372C83.8463 76.7231 85.2465 75.5673 86.6963 74.4736C84.8167 79.9205 83.7195 85.615 83.6013 91.317C83.5195 95.4212 83.9451 99.5289 84.9515 103.551C86.6527 110.35 90.8123 117.645 96.4658 122.57C102.092 127.472 109.055 129.928 116.563 127.493C117.148 127.303 117.801 127.017 118.46 126.653C117.228 126.695 116.026 126.593 114.997 126.373C105.97 124.45 100.501 117.857 97.8405 110.101C95.1913 102.38 95.2515 93.3521 97.3318 86.0743C98.549 81.8158 100.344 77.8037 102.596 74.0768C104.947 70.1787 107.799 66.5923 111.014 63.3621C112.781 62.9855 114.576 62.6843 116.395 62.4618Z" fill="#FF8B52"/>
<circle cx="124" cy="124" r="52" fill="#E7DED9"/>
<circle cx="124" cy="124" r="35" fill="#100E0E"/>
<circle cx="124" cy="124" r="32" fill="white"/>
</svg>
